<svg width="24" height="24" viewBox="0 0 24 24" fill="none" xmlns="http://www.w3.org/2000/svg">
<path d="M15.9546 15.1563C15.8893 15.1564 15.8247 15.1435 15.7643 15.1186C15.704 15.0936 15.6492 15.057 15.603 15.0108C15.5569 14.9646 15.5203 14.9098 15.4953 14.8495C15.4703 14.7892 15.4575 14.7245 15.4575 14.6592L15.458 9.53502L8.57724 16.4157C8.48407 16.5089 8.3577 16.5613 8.22594 16.5613C8.09417 16.5613 7.96781 16.5089 7.87463 16.4157C7.78146 16.3226 7.72912 16.1962 7.72912 16.0644C7.72912 15.9327 7.78146 15.8063 7.87463 15.7131L14.7554 8.83242L9.63115 8.83286C9.49932 8.83286 9.37288 8.78048 9.27965 8.68726C9.18643 8.59404 9.13406 8.4676 9.13406 8.33576C9.13406 8.20392 9.18643 8.07749 9.27965 7.98426C9.37288 7.89104 9.49932 7.83867 9.63115 7.83867L15.9546 7.83867C16.0199 7.83863 16.0846 7.85146 16.1449 7.87643C16.2052 7.9014 16.26 7.93801 16.3062 7.98418C16.3524 8.03035 16.389 8.08516 16.414 8.14549C16.4389 8.20581 16.4518 8.27047 16.4517 8.33576L16.4517 14.6592C16.4518 14.7245 16.4389 14.7892 16.414 14.8495C16.389 14.9098 16.3524 14.9646 16.3062 15.0108C16.26 15.057 16.2052 15.0936 16.1449 15.1186C16.0846 15.1435 16.0199 15.1564 15.9546 15.1563Z" fill="white"/>
</svg>
