<svg width="50" height="50" viewBox="0 0 50 50" fill="none" xmlns="http://www.w3.org/2000/svg">
<path d="M0 5.00014C0 2.23871 2.23858 0.000137329 5 0.000137329H45C47.7614 0.000137329 50 2.23871 50 5.00014V45.0001C50 47.7616 47.7614 50.0001 45 50.0001H5C2.23858 50.0001 0 47.7616 0 45.0001V5.00014Z" fill="#DA4143"/>
<path d="M25.0376 39.5835C24.5695 39.5835 24.1738 39.2444 24.0604 38.7902C23.699 37.3425 23.0071 35.803 21.9849 34.1717C20.7737 32.2131 19.047 30.3963 16.805 28.7212C14.855 27.2474 12.905 26.2424 10.955 25.7062C10.4932 25.5793 10.1562 25.1697 10.1562 24.6908C10.1562 24.2212 10.4802 23.8164 10.9318 23.6874C12.8436 23.1416 14.6854 22.2553 16.4571 21.0288C18.493 19.6114 20.1938 17.9106 21.5597 15.9262C22.7679 14.1586 23.5974 12.4103 24.048 10.6815C24.166 10.2286 24.5647 9.89597 25.0327 9.89597C25.5061 9.89597 25.9076 10.236 26.0227 10.6951C26.2828 11.7315 26.6892 12.7923 27.242 13.8775C27.9378 15.2176 28.8269 16.5061 29.9093 17.7431C31.0174 18.9543 32.2544 20.0495 33.6202 21.0288C35.405 22.2939 37.2194 23.1828 39.0636 23.6953C39.516 23.821 39.8438 24.2238 39.8438 24.6933C39.8438 25.1698 39.5061 25.576 39.0466 25.702C37.8775 26.0225 36.6743 26.5393 35.437 27.2523C33.9423 28.1285 32.5507 29.1722 31.2622 30.3834C29.9737 31.5689 28.9171 32.8187 28.0924 34.133C27.0682 35.7675 26.3756 37.3191 26.0148 38.7877C25.9029 39.2432 25.5067 39.5835 25.0376 39.5835Z" fill="#F9F8F2"/>
</svg>
