<svg width="37" height="31" viewBox="0 0 37 31" fill="none" xmlns="http://www.w3.org/2000/svg">
<path d="M36.5468 1.10367C35.5948 1.15967 34.9088 1.27167 34.4888 1.43967C34.0688 1.60767 33.7748 1.92967 33.6068 2.40567C33.4668 2.88167 33.3968 3.65167 33.3968 4.71567V25.5477C33.3968 26.6117 33.4668 27.3817 33.6068 27.8577C33.7748 28.3337 34.0688 28.6557 34.4888 28.8237C34.9368 28.9917 35.6228 29.1037 36.5468 29.1597V29.9997C35.0068 29.9157 32.8088 29.8737 29.9528 29.8737C26.9568 29.8737 24.7448 29.9157 23.3168 29.9997V29.1597C24.3248 29.1037 25.0528 28.9917 25.5008 28.8237C25.9768 28.6557 26.2987 28.3337 26.4668 27.8577C26.6348 27.3817 26.7188 26.6117 26.7188 25.5477V3.58167L16.5968 30.0417H15.9248L4.58475 2.99367V23.1117C4.58475 24.7637 4.66875 25.9817 4.83675 26.7657C5.00475 27.5217 5.36875 28.0817 5.92875 28.4457C6.48875 28.7817 7.39875 29.0197 8.65875 29.1597V29.9997C7.56675 29.9157 6.05475 29.8737 4.12275 29.8737C2.58275 29.8737 1.36475 29.9157 0.46875 29.9997V29.1597C1.39275 29.0197 2.06475 28.7817 2.48475 28.4457C2.93275 28.1097 3.22675 27.5777 3.36675 26.8497C3.53475 26.1217 3.61875 25.0437 3.61875 23.6157V4.71567C3.61875 3.65167 3.53475 2.88167 3.36675 2.40567C3.22675 1.92967 2.93275 1.60767 2.48475 1.43967C2.06475 1.27167 1.39275 1.15967 0.46875 1.10367V0.263672C1.36475 0.347671 2.58275 0.38967 4.12275 0.38967C6.69875 0.38967 8.91075 0.347671 10.7587 0.263672L19.2428 20.7177L26.9708 0.38967H29.9528C32.8088 0.38967 35.0068 0.347671 36.5468 0.263672V1.10367Z" fill="#DA4143"/>
</svg>
