<svg width="223" height="252" viewBox="0 0 223 252" fill="none" xmlns="http://www.w3.org/2000/svg">
<g clip-path="url(#clip0_708_790)">
<g filter="url(#filter0_f_708_790)">
<path d="M4.31171 97.497C4.93565 96.5611 5.91055 96.7093 6.83086 96.7015C7.06484 96.2023 7.32222 95.7188 7.525 95.204C7.71218 94.7283 7.65758 94.0185 8.32832 94.0029C8.39071 94.0029 8.47651 94.0965 8.5467 94.1433C11.682 84.3007 16.1978 75.0663 21.8756 66.6821C21.8678 66.6587 21.8444 66.6509 21.8366 66.6353C21.2673 66.2298 20.6979 65.8242 20.1286 65.4187C19.8166 65.2549 19.5046 65.1067 19.1849 64.9585C19.4968 65.1145 19.8166 65.2705 20.1286 65.4187C19.8166 65.2627 19.5046 65.1145 19.1849 64.9585C19.0757 64.9429 18.9665 64.9351 18.8573 64.9273C18.2802 65.7774 17.742 66.6509 17.1961 67.5245C17.703 67.5635 18.2412 67.6181 18.249 68.2966C18.249 68.9985 17.6328 69.0609 17.1259 69.1389C16.8061 69.1935 16.5019 69.1389 16.2368 69.0219C10.8085 77.8819 6.61248 87.5685 3.84375 97.8323C4.00753 97.731 4.14012 97.5984 4.31171 97.5048V97.497ZM10.5745 81.0718C10.8397 80.6272 11.214 80.167 11.8302 80.5258C12.2981 80.7988 12.6179 81.2121 12.3839 81.8205C12.0564 82.304 11.6118 82.538 11.0581 82.304C10.5121 82.0779 10.2391 81.6333 10.5823 81.064L10.5745 81.0718Z" fill="white"/>
<path d="M190.898 55.8553L191.17 55.6378C191.061 55.6999 190.952 55.7543 190.836 55.8165C190.859 55.832 190.867 55.8398 190.898 55.8553Z" fill="white"/>
<path d="M216.199 109.878C216.246 109.917 216.3 109.933 216.347 109.98C217.08 110.081 217.774 110.346 217.587 111.22C217.478 111.719 216.971 111.82 216.464 111.781C217.135 116.617 217.509 121.546 217.509 126.561C217.509 169.207 192.427 206.09 156.246 223.272C156.73 223.326 157.252 223.474 157.853 223.755C158.804 224.207 159.124 224.902 159.225 225.697C159.842 225.393 160.442 225.073 161.05 224.761C161.191 223.763 161.706 223.264 162.696 223.295C163.016 223.303 163.265 223.381 163.484 223.498C164.864 222.741 166.237 221.953 167.578 221.142C167.391 220.979 167.266 220.768 167.383 220.464C167.469 220.253 167.75 220.035 167.976 219.988C168.546 219.871 169.115 219.816 169.669 219.809C172.78 217.828 175.783 215.698 178.669 213.429C178.685 212.563 179.168 211.822 179.761 211.183C180.33 210.559 181.133 210.59 181.89 210.808C185.275 207.938 188.488 204.865 191.507 201.613C191.234 201.2 191.117 200.724 191.202 200.147C191.366 199.086 191.959 198.384 193.012 198.189C193.527 198.096 194.072 198.08 194.657 198.057C205.795 184.969 213.929 169.27 218.008 152.01C217.962 151.908 217.876 151.854 217.852 151.737C217.595 150.434 217.891 149.249 218.812 148.274C218.827 148.258 218.835 148.251 218.851 148.235C219.833 143.298 220.489 138.236 220.785 133.089C220.683 132.816 220.707 132.558 220.847 132.309C220.941 130.406 220.995 128.495 220.995 126.569C220.995 122.029 220.691 117.561 220.153 113.162C219.943 112.99 219.802 112.748 219.81 112.429C219.81 112.249 219.927 112.124 220.005 111.976C219.833 110.658 219.638 109.34 219.412 108.038C219.217 108.17 218.968 108.225 218.671 108.162C218.57 108.139 218.414 107.96 218.437 107.882C218.547 107.429 218.843 107.187 219.248 107.078C216.043 89.14 208.501 72.6914 197.738 58.8555C196.607 59.3001 195.469 59.729 194.33 60.1658C205.545 74.2902 213.282 91.2926 216.207 109.886L216.199 109.878Z" fill="white"/>
<path d="M29.3438 51.6823C29.3438 51.6823 29.375 51.6823 29.3906 51.6823C28.8836 55.4337 27.8541 56.6972 25.335 56.2371C23.5256 58.4287 21.8175 60.706 20.1719 63.038C20.2031 63.0692 20.2343 63.0848 20.2655 63.116C20.2655 63.116 20.2655 63.116 20.2655 63.1082C20.5306 63.0926 20.7958 63.1238 21.0454 63.2018C21.4899 63.2876 21.7941 63.545 21.9267 63.9817C22.4883 63.9193 23.0888 63.0926 23.5879 64.0831C23.6269 64.0831 23.6581 64.0909 23.6971 64.0987C43.1485 37.1523 74.7978 19.5572 110.503 19.5572C119.877 19.5572 128.971 20.7817 137.644 23.0512C137.707 22.5833 137.878 22.1621 138.276 21.8502C139.188 21.1248 140.07 21.3588 140.881 22.0841C141.567 22.1231 142.137 22.3805 142.519 22.981H142.534C142.815 23.0044 143.088 23.02 143.369 23.0356C143.564 22.9265 143.767 22.8485 143.985 22.8095C144.079 22.3025 144.079 21.8034 144.102 21.3042C133.503 17.9115 122.217 16.0631 110.511 16.0631C78.4479 16.0631 49.5439 29.7976 29.3438 51.6823Z" fill="white"/>
<path d="M144.996 24.5613C144.902 24.7719 144.808 24.9825 144.715 25.1931C148.123 26.3474 151.461 27.6654 154.706 29.1473C155.135 28.461 155.969 27.9852 156.749 28.2348C157.108 28.3518 157.42 28.6247 157.389 28.6013C157.552 29.4203 157.435 29.9194 157.178 30.286C169.243 36.1588 180.03 44.231 189.046 53.9801C189.147 53.9801 189.241 53.9645 189.342 53.9645C189.389 53.6915 189.444 53.4264 189.498 53.1534C189.436 52.4437 189.545 51.8197 190.34 51.5623C190.582 51.4999 190.832 51.4843 191.081 51.5155C191.378 51.7729 191.659 52.0459 191.97 52.2877C191.674 52.0303 191.378 51.7729 191.081 51.5155C191.549 51.5701 191.83 51.8431 191.97 52.2877C192.095 53.0442 191.939 53.6759 191.183 54.0425C191.167 54.5729 191.144 55.1032 191.128 55.6336C191.362 55.9611 191.588 56.2887 191.822 56.6163C192.134 56.8814 192.454 57.1466 192.766 57.4118C193.928 57.3572 195.09 57.3338 196.19 56.897C188.328 47.2416 178.876 38.9431 168.23 32.3918C168.144 32.5166 168.058 32.6492 167.933 32.7115C167.387 33.0001 166.888 32.7271 166.529 32.2358C166.451 32.1266 166.366 32.0096 166.319 31.8848C166.217 31.6275 166.139 31.3779 166.077 31.1205C159.752 27.4237 153.037 24.3429 146.002 21.9486C145.939 22.6427 145.83 23.329 145.565 23.9998C145.471 24.226 145.183 24.3741 144.988 24.5613H144.996Z" fill="white"/>
<path d="M153.177 225.366C153.404 224.944 153.645 224.64 153.887 224.344C148.318 226.824 142.516 228.844 136.503 230.349C136.503 230.373 136.526 230.388 136.526 230.412C136.518 231.082 135.684 231.566 134.217 231.543C134.054 231.504 133.492 231.457 132.993 231.262C132.946 231.246 132.915 231.215 132.868 231.192C125.662 232.728 118.198 233.555 110.539 233.555C80.2544 233.555 52.8868 220.881 33.3965 200.595C33.2249 201.009 32.9052 201.289 32.3592 201.305C31.7431 201.32 31.2673 200.884 31.3765 200.314C31.4701 199.831 31.8133 199.55 32.2578 199.402C29.5749 196.524 27.0401 193.506 24.6847 190.347C24.7315 190.542 24.7081 190.823 24.5989 190.955C24.4508 191.127 24.0998 191.283 23.897 191.228C22.8519 190.947 21.838 190.581 21.1439 189.668L21.1049 189.653C20.5355 189.661 20.2704 189.395 20.3562 188.818C20.247 188.561 20.247 188.304 20.3718 188.046C20.1612 187.173 20.5433 186.494 21.1127 185.886C21.1985 185.8 21.2843 185.699 21.3779 185.613C18.8275 181.776 16.5189 177.775 14.4755 173.61C14.2727 174.234 13.992 174.686 13.524 174.998C13.0561 175.31 12.5023 175.419 11.9798 175.021C11.5196 174.67 11.2154 174.241 11.1452 173.649C11.0672 172.994 11.4104 172.588 11.972 172.393C12.4945 172.214 13.0561 172.143 13.5942 172.042C13.641 172.034 13.68 172.042 13.7268 172.042C7.21441 158.23 3.54877 142.81 3.54877 126.557C3.54877 116.168 5.06182 106.131 7.83835 96.6233C7.51859 96.6545 7.19102 96.6623 6.87125 96.6935H6.86345C6.55928 97.4812 6.00553 98.0272 5.2646 98.3937C4.78885 99.2439 4.2117 100.016 3.28359 100.39C3.26799 100.39 3.2446 100.383 3.2212 100.39C1.17779 108.782 0.0625 117.541 0.0625 126.557C0.0625 162.316 17.1507 194.145 43.5823 214.353C44.0425 214.072 44.5572 213.94 45.1032 214.189C45.8207 214.517 46.4836 215.047 47.0608 215.601C47.9343 216.435 48.3009 217.746 49.541 218.253C50.4223 218.097 51.1788 218.299 51.366 219.259C51.4362 219.61 51.5922 219.82 51.7481 220.039C52.0133 220.21 52.2707 220.382 52.5437 220.546C52.6841 220.585 52.7698 220.678 52.9414 220.694C52.8868 219.953 53.0194 219.337 53.8539 219.126C55.9753 219.282 56.3107 219.789 55.3436 221.419C55.2266 221.622 55.055 221.786 54.8912 221.957C59.1574 224.461 63.603 226.691 68.2046 228.61C67.6742 228.306 67.2999 227.659 67.3622 226.902C67.409 226.309 67.7444 225.849 68.3684 225.779C69.3589 225.67 70.3572 226.535 70.3494 227.44C70.2558 228.236 69.7488 228.68 69.0235 228.797C68.8519 228.828 68.6959 228.782 68.5399 228.743C69.9516 229.328 71.3633 229.889 72.7983 230.412C72.9777 230.076 73.2351 229.811 73.3833 229.452C73.5627 229.023 74.0774 228.938 74.4596 229.101C74.8105 229.25 75.1537 229.546 75.3643 229.858C75.6607 230.31 75.5827 230.848 75.3409 231.277C86.408 235.005 98.2395 237.064 110.547 237.064C118.089 237.064 125.459 236.3 132.587 234.849C133.001 234.28 133.492 234.194 134.28 234.467C140.808 233.032 147.133 231.036 153.177 228.501C152.725 227.557 152.561 226.559 153.185 225.389L153.177 225.366ZM2.52706 136.587C2.35548 136.532 2.27749 136.205 2.1605 136.01C2.33208 135.386 2.79224 135.23 3.34599 135.378C3.50977 135.425 3.73595 135.768 3.69695 135.908C3.52537 136.454 3.13541 136.797 2.53486 136.587H2.52706Z" fill="white"/>
<g clip-path="url(#clip1_708_790)">
<path d="M30.3611 122.904L28.9003 122.71L28.6271 119.862L29.2655 120.543L15.631 118.731L16.1834 118.184L15.6719 122.411L15.1972 121.678L18.1076 122.679L17.858 124.459L13.3128 123.873L15.0806 110.304L19.6258 110.889L19.3762 112.668L16.3901 112.836L16.9435 112.233L16.432 116.461L16.0105 115.784L29.645 117.595L28.8236 118.026L29.7944 115.368L31.2552 115.562L30.3069 122.903L30.3611 122.904Z" fill="white"/>
<path d="M35.2957 96.2919L34.3637 96.8323L35.6455 94.9604L37.047 95.4321L34.9212 101.915L33.5197 101.444L33.6711 99.1052L33.9893 99.5013L30.465 99.4366L30.9592 99.1111L28.8333 105.595L28.6257 105.089L31.352 107.257L31.0266 107.251L32.1458 105.377L33.5473 105.848L31.5944 111.777L30.1929 111.306L30.2328 109.132L30.6512 109.976L18.0448 99.4315L18.9123 96.4928L35.2414 96.2909L35.2957 96.2919ZM27.6098 104.29L27.174 104.393L28.9551 98.9628L29.3264 99.4156L19.9496 99.0762L20.1788 98.4115L27.6098 104.29Z" fill="white"/>
<path d="M29.1815 83.7479C29.6102 84.0346 30.0429 84.0982 30.4787 83.9948C30.9145 83.8913 31.3523 83.6763 31.8475 83.2952C32.3426 82.914 32.7825 82.5876 33.2797 82.095C33.7758 81.6582 34.272 81.2213 34.8224 80.7854C35.3185 80.3486 35.8668 80.0241 36.4684 79.7564C37.0699 79.4888 37.6684 79.3882 38.319 79.4002C38.9696 79.4121 39.6704 79.648 40.367 80.1068C41.3859 80.7387 42.0232 81.4751 42.3854 82.4295C42.7475 83.3838 42.7843 84.3322 42.6023 85.388C42.4202 86.4439 42.0212 87.4958 41.4043 88.5994C40.9573 89.3159 40.456 90.0314 39.9015 90.6902C39.347 91.349 38.6841 92.0058 37.9691 92.5501L34.3252 90.1418L35.2213 88.5974L37.966 89.7627L37.3696 89.7517C37.8095 89.4253 38.2504 89.0432 38.6381 88.6043C39.0258 88.1655 39.3593 87.7256 39.6386 87.2848C39.9742 86.7335 40.2023 86.1244 40.321 85.5691C40.4396 85.0138 40.3956 84.4556 40.2412 84.0068C40.0867 83.5579 39.7686 83.1619 39.2857 82.8743C38.8028 82.5867 38.3701 82.523 37.9353 82.5707C37.4995 82.6742 37.0075 82.8882 36.5676 83.2146C36.1277 83.541 35.6326 83.9221 35.1354 84.4147C34.6382 84.9073 34.1431 85.2885 33.6469 85.7253C33.1508 86.1622 32.6024 86.4866 32.0009 86.7543C31.4536 87.023 30.7999 87.1782 30.2045 87.1116C29.5539 87.0996 28.9074 86.8648 28.1565 86.405C27.245 85.8308 26.6066 85.1501 26.2425 84.3072C25.8783 83.4643 25.8404 82.5717 25.9673 81.5705C26.1484 80.5704 26.4921 79.5733 27.0527 78.5801C27.4455 77.8626 27.9458 77.2028 28.5555 76.4893C29.1642 75.8315 29.8271 75.1747 30.5422 74.6304L33.8618 76.977L32.9656 78.5214L30.4347 77.5273L30.9248 77.4248C30.5401 77.6964 30.2087 78.0248 29.8762 78.409C29.5437 78.7931 29.2654 79.1782 28.9862 79.6191C28.7059 80.1156 28.4788 80.6689 28.3611 81.1685C28.2435 81.6681 28.2342 82.1696 28.3345 82.6175C28.489 83.0663 28.7539 83.4056 29.2368 83.6932L29.1815 83.7479Z" fill="white"/>
<path d="M48.1103 77.9633L46.9901 76.9393L48.3374 74.4554L48.5369 75.4068L38.2957 66.0205L39.0579 65.8672L36.2876 69.0497L36.3039 68.1581L38.2108 70.6459L37.0466 72.0182L33.6329 68.8895L42.4992 58.6275L45.913 61.7563L44.7488 63.1286L42.1749 61.5204L42.9371 61.3672L40.1668 64.5497L40.1811 63.7695L50.4765 73.1568L49.5569 73.0284L51.8105 71.3974L52.9307 72.4214L48.1103 77.9633Z" fill="white"/>
<path d="M62.9 58.0545L64.2759 56.9648L66.8682 60.5244L57.0197 68.1482L56.1195 66.961L57.564 65.0921L57.5507 65.8166L49.3504 54.5723L50.0511 54.8082L47.9182 55.7725L47.0179 54.5853L50.7621 51.5322L56.5943 47.0122L59.0811 50.4027L57.651 51.4914L55.8382 49.7857L56.5431 49.7987L51.7012 53.5563L51.7135 52.8876L55.4198 57.8056L54.7712 57.6822L59.4484 54.033L60.6647 55.7278L55.9876 59.377L56.0009 58.6525L59.9179 63.9089L59.2673 63.897L64.3311 59.8646L64.1552 60.5861L62.9532 58.1112L62.9 58.0545Z" fill="white"/>
<path d="M89.5473 48.5091L88.5785 48.1011L90.8046 47.9748L91.3212 49.3779L85.0962 51.6608L84.5796 50.2576L86.4476 48.954L86.33 49.4535L84.2134 46.5716L84.8067 46.7497L78.5818 49.0325L78.8079 48.535L78.8508 52.1036L78.639 51.8209L80.7587 51.5811L81.2743 53.04L75.5404 55.1646L75.0238 53.7615L76.7833 52.4558L76.3342 53.2838L76.6391 36.6767L79.3174 35.5552L89.6005 48.5659L89.5473 48.5091ZM78.6687 47.2502L78.3496 46.9099L83.5924 44.9435L83.4738 45.4988L77.921 37.7595L78.5757 37.5485L78.724 47.1955L78.6687 47.2502Z" fill="white"/>
<path d="M107.451 30.2741L113.539 29.5497L113.674 31.0574L111.544 31.8545L112.155 31.0295L109.2 47.2534L106.429 47.537L101.464 34.3453L102.006 34.3552L99.2574 48.1858L96.4861 48.4694L91.1246 33.2635L91.4949 33.772L89.6014 33.5142L89.4663 32.0066L95.8253 31.2871L95.9603 32.7948L93.8294 33.6476L94.166 33.0406L98.219 45.6581L97.6226 45.6472L100.278 30.9787L102.942 30.6373L108.054 44.668L107.456 44.7685L109.541 31.6504L109.857 32.158L107.529 31.8923L107.394 30.3846L107.451 30.2741Z" fill="white"/>
<path d="M130.283 48.1979L129.593 47.349L131.582 48.3333L131.337 49.8339L124.794 48.7661L125.039 47.2654L127.321 47.0286L126.988 47.4127L126.458 43.8352L126.883 44.2889L120.34 43.2211L120.78 42.8947L119.149 46.0423L119.155 45.708L121.093 46.524L120.848 48.0247L114.791 47.0773L115.036 45.5766L117.156 45.281L116.388 45.7687L124.412 31.1987L127.387 31.5878L130.339 48.0875L130.283 48.1979ZM121.344 41.7344L121.189 41.2855L126.705 42.1673L126.372 42.6071L125.137 33.0517L125.785 33.1751L121.398 41.7354L121.344 41.7344Z" fill="white"/>
<path d="M133.493 50.5982L134.062 49.1593L136.389 49.425L135.784 49.8598L140.798 36.7398L141.054 37.5807L139.02 36.094L139.589 34.655L144.221 36.4124L146.536 37.3469C148.259 38.0475 149.435 38.9611 150.012 40.0308C150.643 41.1574 150.62 42.3834 150.106 43.7676C149.595 45.0404 148.82 45.9181 147.779 46.4565C146.685 46.9939 145.329 46.969 143.656 46.4923L143.771 46.1599C144.362 46.4495 144.791 46.7361 145.056 47.0755C145.321 47.4148 145.586 47.7542 145.686 48.202C145.786 48.6498 145.887 49.0976 145.932 49.6002L146.34 53.956L145.758 53.1648L147.467 54.5899L146.898 56.0289L143.56 54.6854L143.223 49.4389C143.236 48.7145 143.138 48.1552 143.037 47.7631C142.935 47.371 142.779 47.0337 142.513 46.75C142.247 46.4664 141.817 46.2356 141.224 46.0574L139.932 45.532L140.532 45.32L138.367 51.0222L138.217 50.2947L140.358 51.8392L139.79 53.2782L133.329 50.651L133.493 50.5982ZM141.037 44.4373L140.836 43.5417L142.775 44.302C143.905 44.7687 144.826 44.8414 145.589 44.6324C146.353 44.3677 146.906 43.8204 147.302 42.8799C147.589 42.049 147.601 41.3803 147.342 40.7065C147.028 40.0875 146.441 39.575 145.472 39.167L142.942 38.1171L143.598 37.8504L141.093 44.3268L141.037 44.4373Z" fill="white"/>
<path d="M165.167 47.5562C166.078 48.1862 166.878 48.9256 167.459 49.7725C168.04 50.6193 168.404 51.4622 168.602 52.4693C168.748 53.4197 168.729 54.4228 168.438 55.5324C168.147 56.5863 167.639 57.6919 166.858 58.8482C165.798 60.4454 164.638 61.5948 163.324 62.2954C162.063 62.997 160.703 63.2507 159.349 63.1144C157.996 62.978 156.65 62.4516 155.312 61.4793L149.582 57.4718L150.419 56.205L152.627 57.026L151.917 57.2917L159.67 45.6714L159.655 46.4516L158.116 44.6394L158.953 43.3726L163.239 46.2387L165.113 47.5553L165.167 47.5562ZM156.645 59.7756C157.126 60.119 157.665 60.3518 158.204 60.529C158.743 60.7061 159.393 60.7181 159.993 60.5618C160.646 60.4623 161.302 60.1399 162.017 59.5956C162.732 59.0512 163.453 58.2282 164.178 57.1266C164.903 56.025 165.354 55.0856 165.587 54.2536C165.819 53.4217 165.886 52.6982 165.789 52.0832C165.692 51.4682 165.431 50.9059 165.114 50.4541C164.797 50.0023 164.37 49.6043 163.943 49.2619L161.479 47.5443L162.132 47.4448L154.546 58.8452L154.396 58.1734L156.645 59.7756Z" fill="white"/>
<path d="M176.179 62.3642C175.792 62.7473 175.623 63.1344 175.614 63.5803C175.606 64.0261 175.706 64.5296 175.858 65.0899C176.01 65.6502 176.271 66.2124 176.585 66.8314C176.845 67.4494 177.159 68.0684 177.365 68.6854C177.57 69.3024 177.775 69.9751 177.872 70.5901C177.969 71.2051 177.903 71.8729 177.728 72.5386C177.554 73.1486 177.108 73.8094 176.501 74.3557C175.673 75.1767 174.743 75.6056 173.819 75.7002C172.841 75.7937 171.922 75.6096 170.956 75.0901C169.988 74.6264 169.133 73.9417 168.282 73.0341C167.696 72.4102 167.167 71.7315 166.747 70.9433C166.328 70.1552 165.854 69.366 165.544 68.5241L168.798 65.5735L169.968 66.8772L168.133 69.2964L168.307 68.6863C168.46 69.2466 168.721 69.7531 169.038 70.2607C169.354 70.7682 169.671 71.22 170.043 71.6171C170.468 72.1266 170.95 72.4699 171.487 72.7585C171.969 73.0461 172.455 73.1665 172.944 73.1197C173.432 73.1287 173.871 72.858 174.312 72.4759C174.699 72.0928 174.924 71.6509 174.932 71.2051C174.94 70.7593 174.896 70.201 174.689 69.6954C174.481 69.1899 174.275 68.5729 173.96 68.0097C173.646 67.3907 173.385 66.8284 173.127 66.1547C172.867 65.5367 172.715 64.9207 172.619 64.25C172.523 63.5792 172.588 62.9672 172.762 62.3572C172.936 61.7472 173.381 61.1421 173.989 60.5401C174.762 59.7738 175.584 59.3429 176.508 59.2484C177.377 59.1528 178.243 59.2802 179.156 59.743C180.016 60.149 180.873 60.7779 181.616 61.6278C182.148 62.1951 182.677 62.9295 183.152 63.6629C183.627 64.3963 184.045 65.2402 184.354 66.1378L181.268 68.8128L180.044 67.5081L181.713 65.2531L181.703 65.7547C181.549 65.3059 181.34 64.8561 181.076 64.461C180.812 64.0659 180.495 63.6141 180.176 63.2738C179.805 62.821 179.377 62.4787 178.893 62.2468C178.465 61.9602 177.979 61.8398 177.545 61.8318C177.111 61.8238 176.673 62.0388 176.287 62.4219L176.179 62.3642Z" fill="white"/>
<path d="M176.236 79.9812C176.62 79.7096 177.056 79.6061 177.488 79.7255C177.92 79.8449 178.295 80.0748 178.559 80.4699C178.876 80.9217 178.977 81.3138 178.915 81.7586C178.853 82.2034 178.63 82.5338 178.19 82.8602C177.75 83.1866 177.369 83.2354 176.936 83.1717C176.505 83.0523 176.129 82.8224 175.864 82.483C175.547 82.0312 175.446 81.6392 175.508 81.1943C175.571 80.7495 175.795 80.3634 176.234 80.0927L176.236 79.9812Z" fill="white"/>
<path d="M183.647 95.6151L185.013 95.027L186.598 97.3417L185.68 97.1019L198.415 91.8167L198.184 92.5929L196.629 88.6621L197.435 89.0671L194.386 89.6801L193.712 87.9953L197.975 86.2339L202.949 98.9241L198.686 100.685L198.012 99.0007L200.537 97.3189L200.36 98.0961L198.806 94.1653L199.449 94.5673L186.715 99.8525L187.217 99.0812L187.654 101.877L186.287 102.465L183.594 95.5584L183.647 95.6151Z" fill="white"/>
<path d="M192.073 121.191L192.578 120.252L192.373 122.534L190.903 122.842L189.671 116.129L191.141 115.822L192.132 117.958L191.648 117.726L194.717 115.999L194.436 116.551L193.203 109.839L193.631 110.181L190.223 109.673L190.497 109.51L190.457 111.684L188.933 111.99L187.799 105.837L189.269 105.53L190.263 107.499L189.568 106.929L205.571 109.732L206.222 112.698L192.128 121.136L192.073 121.191ZM194.983 110.373L195.368 110.102L196.403 115.751L195.864 115.574L204.19 111.1L204.286 111.771L194.982 110.429L194.983 110.373Z" fill="white"/>
<path d="M198.957 133.358L196.734 133.318L196.707 125.903L198.876 125.942L198.902 133.357L198.957 133.358Z" fill="white"/>
<path d="M35.018 178.827L36.265 177.97L38.2075 179.472L37.469 179.458L49.1921 171.345L48.9924 172.162L47.9881 169.856L49.2351 169L52.4259 172.929L53.9895 174.952C55.1319 176.439 55.7215 177.858 55.6373 179.088C55.5532 180.318 54.9184 181.362 53.6703 182.278C52.5474 183.078 51.3101 183.407 50.0824 183.209C48.8537 183.069 47.5742 182.342 46.367 181.029L46.6779 180.859C47.0375 181.393 47.2751 181.867 47.3291 182.278C47.3831 182.69 47.3745 183.159 47.3054 183.568C47.2363 183.978 46.9815 184.442 46.7883 184.908L44.7478 188.741L44.7661 187.745L45.4044 189.868L44.1573 190.725L41.933 187.81L44.5402 183.283C44.9213 182.645 45.1761 182.18 45.3067 181.772C45.4374 181.364 45.5054 181.013 45.3272 180.658C45.2106 180.304 44.9719 179.889 44.5508 179.354L43.7097 178.224L44.3845 178.353L39.2711 181.896L39.5302 181.197L40.5939 183.621L39.3469 184.478L35.018 178.827ZM45.1338 177.781L45.4576 176.907L46.7804 178.632C47.5006 179.642 48.2899 180.243 49.1483 180.435C49.9451 180.626 50.81 180.466 51.6208 179.894C52.369 179.38 52.7491 178.8 52.8235 178.098C52.898 177.395 52.6043 176.627 52.0039 175.795L50.3205 173.594L50.9953 173.724L45.1953 177.782L45.1338 177.781Z" fill="white"/>
<path d="M54.4524 200.239C53.2388 199.279 52.4581 198.209 51.9872 197.027C51.5164 195.845 51.4786 194.554 51.8121 193.153C52.1446 191.81 52.9716 190.359 54.2283 188.974C55.2345 187.82 56.2354 186.958 57.2935 186.332C58.3516 185.707 59.4043 185.374 60.5153 185.218C61.5637 185.12 62.6078 185.257 63.6497 185.511C64.6906 185.823 65.6656 186.369 66.5758 187.089C67.4861 187.81 68.2106 188.586 68.6868 189.474C69.163 190.363 69.4546 191.248 69.5594 192.247C69.6026 193.245 69.5228 194.24 69.0726 195.288C68.684 196.336 67.9876 197.379 67.1066 198.419C65.8488 199.862 64.4755 200.893 63.0481 201.511C61.6208 202.13 60.1405 202.279 58.6667 202.076C57.1928 201.873 55.8496 201.262 54.514 200.24L54.4524 200.239ZM56.1442 198.628C56.8731 199.169 57.6052 199.535 58.4657 199.609C59.3252 199.742 60.2526 199.525 61.2459 199.074C62.2392 198.623 63.3016 197.762 64.3716 196.492C65.3778 195.337 66.0126 194.293 66.3376 193.361C66.6636 192.37 66.6787 191.549 66.3849 190.781C66.1528 190.014 65.6107 189.359 64.8819 188.818C64.2146 188.278 63.421 187.911 62.5615 187.778C61.702 187.645 60.8361 187.864 59.8428 188.315C58.9099 188.825 57.8476 189.686 56.7787 190.898C55.7725 192.052 55.1376 193.096 54.8127 194.029C54.4878 194.961 54.4716 195.841 54.7038 196.607C54.936 197.374 55.4165 198.028 56.1453 198.569L56.1442 198.628Z" fill="white"/>
<path d="M92.7533 202.878L90.2343 202.597L90.9221 202.023L85.1452 214.879L84.9735 214.172L86.9171 215.616L86.2758 217.012L80.0435 214.434L80.6848 213.038L83.2643 213.378L82.5182 213.775L87.5879 202.549L88.0155 202.732L79.5822 209.381L77.6851 208.76L77.2008 198.252L77.6284 198.436L72.5576 209.721L72.4474 209.016L74.391 210.459L73.7497 211.855L67.823 209.4L68.4643 208.004L70.9207 208.342L70.2361 208.74L76.013 195.884L76.12 196.766L74.1148 195.322L74.7561 193.926L80.1354 196.019L80.3713 206.639L80.0042 206.515L88.3814 199.572L93.3946 201.482L92.7533 202.878Z" fill="white"/>
<path d="M109.019 219.13L108.294 218.354L110.432 219.273L110.221 220.736L103.218 219.903L103.429 218.441L105.836 218.133L105.459 218.537L104.784 215.064L105.207 215.482L98.2043 214.65L98.6405 214.365L96.9822 217.501L96.9886 217.149L99.0682 217.891L98.8567 219.354L92.4064 218.59L92.6179 217.128L94.84 216.817L94.0918 217.331L102.115 202.815L105.25 203.107L108.894 219.245L109.019 219.13ZM99.3422 213.028L99.1651 212.615L105.061 213.368L104.684 213.83L103.07 204.475L103.745 204.605L99.34 213.146L99.3422 213.028Z" fill="white"/>
<path d="M116.596 218.8C116.604 218.331 116.736 217.864 117.049 217.576C117.363 217.23 117.797 217.062 118.29 217.071C118.844 217.082 119.273 217.148 119.576 217.447C119.878 217.746 120.118 218.102 120.108 218.63C120.098 219.157 119.968 219.566 119.655 219.853C119.34 220.199 118.906 220.367 118.476 220.359C117.922 220.349 117.492 220.283 117.128 219.983C116.764 219.683 116.586 219.328 116.534 218.799L116.596 218.8Z" fill="white"/>
<path d="M141.242 214.736L140.452 214.194L143.843 213.904L144.309 215.379L135.52 217.916L135.054 216.441L138.655 214.806L138.27 215.679L134.314 203.113L135.179 202.953L131.793 206.293L130.28 204.857L134.115 200.529L136.591 199.812L141.303 214.796L141.242 214.736Z" fill="white"/>
<path d="M153.822 199.894L154.961 201.615C154.517 202.311 154.012 203.006 153.384 203.639C152.757 204.273 152.071 204.73 151.325 205.126C150.455 205.58 149.528 205.797 148.665 205.84C147.742 205.823 146.945 205.633 146.152 205.207C145.421 204.783 144.757 204.067 144.22 203.178C143.624 202.111 143.334 201.109 143.414 200.113C143.432 199.116 143.818 198.244 144.449 197.376C145.08 196.566 145.954 195.878 147.011 195.311C148.13 194.745 149.243 194.472 150.412 194.494C151.582 194.515 152.621 194.886 153.715 195.669C154.809 196.451 155.773 197.583 156.667 199.183C157.621 200.902 158.144 202.612 158.238 204.198C158.332 205.783 157.997 207.243 157.235 208.519C156.473 209.796 155.345 210.831 153.792 211.623C152.984 212.019 151.993 212.353 150.941 212.627L150.115 210.676C150.548 210.567 150.921 210.398 151.292 210.287C151.665 210.118 151.974 210.007 152.285 209.836C153.528 209.214 154.342 208.466 154.852 207.537C155.361 206.608 155.442 205.554 155.279 204.378C155.055 203.201 154.586 201.902 153.812 200.48C152.918 198.88 152.014 197.808 151.099 197.322C150.186 196.777 149.2 196.818 148.207 197.269C147.336 197.722 146.833 198.299 146.573 199.057C146.375 199.816 146.544 200.64 146.959 201.527C147.316 202.179 147.739 202.597 148.165 202.898C148.653 203.142 149.142 203.327 149.635 203.277C150.128 203.286 150.685 203.121 151.182 202.895C151.741 202.612 152.241 202.211 152.743 201.692C153.245 201.173 153.563 200.593 153.884 199.895L153.822 199.894Z" fill="white"/>
<path d="M168.047 189.832L169.499 191.266C169.237 192.083 168.916 192.839 168.41 193.534C167.967 194.23 167.4 194.923 166.713 195.438C165.963 196.07 165.155 196.465 164.228 196.683C163.362 196.902 162.501 196.827 161.644 196.577C160.788 196.268 159.996 195.784 159.273 194.95C158.427 194.054 157.952 193.107 157.786 192.107C157.62 191.107 157.821 190.172 158.208 189.241C158.594 188.31 159.288 187.443 160.225 186.697C161.163 185.893 162.218 185.444 163.33 185.229C164.442 185.015 165.609 185.154 166.769 185.703C167.991 186.195 169.205 187.155 170.411 188.527C171.738 190.017 172.633 191.559 173.097 193.092C173.562 194.626 173.534 196.15 173.139 197.55C172.682 198.95 171.797 200.224 170.484 201.314C169.735 201.887 168.925 202.4 167.932 202.851L166.67 201.127C167.044 200.899 167.416 200.73 167.728 200.501C168.04 200.272 168.351 200.102 168.602 199.872C169.664 199.011 170.297 198.085 170.561 197.092C170.826 196.1 170.722 195.043 170.25 193.92C169.778 192.796 168.999 191.668 167.914 190.416C166.707 189.045 165.553 188.203 164.574 187.892C163.533 187.579 162.606 187.797 161.731 188.484C160.982 189.057 160.6 189.754 160.584 190.575C160.571 191.337 160.864 192.105 161.527 192.88C162.01 193.416 162.496 193.777 163.046 193.963C163.536 194.148 164.089 194.158 164.585 193.991C165.08 193.883 165.576 193.658 166.015 193.255C166.514 192.854 166.892 192.392 167.273 191.753C167.655 191.115 167.85 190.532 167.987 189.772L168.047 189.832Z" fill="white"/>
<path d="M186.151 186C185.646 186.636 185.144 187.155 184.521 187.554C183.897 188.012 183.277 188.294 182.595 188.516C181.914 188.738 181.236 188.784 180.56 188.713C179.884 188.642 179.211 188.395 178.605 187.915C178.057 187.553 177.696 187.077 177.397 186.602C177.098 186.127 176.924 185.538 176.873 185.009C176.821 184.48 176.893 183.895 176.904 183.309C176.915 182.722 177.17 182.199 177.426 181.676L179.227 180.829C179.098 181.179 178.967 181.587 178.898 181.996C178.829 182.405 178.76 182.815 178.875 183.227C178.868 183.638 178.983 184.051 179.223 184.407C179.463 184.763 179.702 185.119 180.128 185.421C180.614 185.781 181.103 185.966 181.657 185.976C182.211 185.987 182.704 185.937 183.202 185.653C183.699 185.427 184.137 185.025 184.515 184.563C184.894 184.042 185.15 183.519 185.282 182.993C185.354 182.467 185.302 181.938 185.187 181.466C185.011 180.994 184.711 180.578 184.224 180.276C183.738 179.915 183.188 179.729 182.694 179.778C182.202 179.769 181.645 179.935 181.085 180.218C180.526 180.501 179.967 180.784 179.405 181.184C178.844 181.585 178.222 181.925 177.662 182.267C177.101 182.608 176.48 182.89 175.861 183.113C175.241 183.337 174.624 183.384 173.947 183.372C173.332 183.36 172.66 183.055 172.054 182.574C171.203 181.972 170.601 181.199 170.433 180.316C170.202 179.49 170.279 178.612 170.481 177.677C170.745 176.744 171.191 175.931 171.884 175.064C172.513 174.313 173.202 173.68 174.012 173.167C174.821 172.654 175.626 172.435 176.489 172.392C177.35 172.408 178.207 172.658 178.998 173.2C179.484 173.561 179.845 173.978 180.146 174.394C180.384 174.809 180.559 175.34 180.551 175.809C180.542 176.279 180.532 176.806 180.4 177.332C180.267 177.857 180.072 178.381 179.878 178.906L177.764 180.04C178.018 179.634 178.21 179.227 178.279 178.818C178.41 178.409 178.479 178 178.486 177.59C178.494 177.179 178.377 176.825 178.199 176.47C178.021 176.115 177.78 175.817 177.415 175.576C176.99 175.275 176.501 175.09 176.07 175.082C175.577 175.073 175.144 175.182 174.709 175.409C174.274 175.636 173.899 175.981 173.583 176.385C173.268 176.79 173.013 177.255 172.944 177.664C172.875 178.073 172.805 178.541 172.919 179.012C173.034 179.484 173.336 179.783 173.761 180.142C174.248 180.445 174.737 180.629 175.23 180.58C175.722 180.589 176.281 180.365 176.839 180.14C177.398 179.857 177.958 179.516 178.519 179.174C179.08 178.774 179.702 178.433 180.264 178.033C180.885 177.692 181.445 177.409 182.126 177.187C182.807 176.965 183.424 176.918 184.038 176.988C184.715 177 185.325 177.305 186.055 177.787C186.724 178.269 187.267 178.865 187.563 179.516C187.857 180.225 188.03 180.874 188.016 181.636C188.003 182.339 187.805 183.098 187.544 183.856C187.284 184.614 186.842 185.251 186.399 185.888L186.151 186Z" fill="white"/>
<path d="M82.8948 114.262C83.9339 114.282 84.9152 114.468 85.7841 114.82C86.6529 115.173 87.4104 115.635 87.9996 116.319C88.6435 117.004 89.0666 117.797 89.4309 118.813C89.7416 119.772 89.884 120.953 89.8603 122.242C89.8264 124.092 89.4704 125.6 88.8462 126.823C88.1673 128.044 87.2747 128.981 86.1149 129.577C84.9551 130.172 83.6364 130.485 82.1051 130.457L75.597 130.337L75.6228 128.935L77.766 128.414L77.3728 128.967L77.6158 115.736L78.042 116.361L75.8647 115.76L75.8904 114.358L80.7052 114.334L82.8381 114.374L82.8948 114.262ZM82.3083 128.329C82.8552 128.339 83.4041 128.237 83.8994 128.078C84.3947 127.919 84.8931 127.591 85.3378 127.207C85.7836 126.766 86.123 126.156 86.4109 125.376C86.6988 124.596 86.8277 123.533 86.8503 122.299C86.873 121.066 86.7821 120.054 86.5231 119.265C86.3188 118.476 85.9473 117.852 85.5716 117.452C85.196 117.053 84.71 116.707 84.2209 116.53C83.7317 116.353 83.2416 116.232 82.6947 116.222L79.9055 116.171L80.3513 115.73L80.1135 128.681L79.6842 128.225L82.2546 128.272L82.3083 128.329Z" fill="white"/>
<path d="M101.707 126.61L103.348 126.64L103.271 130.789L91.6772 130.576L91.703 129.175L93.8461 128.653L93.453 129.207L93.696 115.975L94.0685 116.543L91.9449 115.999L91.9706 114.597L96.4572 114.568L103.293 114.693L103.22 118.674L101.58 118.644L101.185 116.281L101.725 116.683L96.0373 116.579L96.4831 116.138L96.377 121.913L95.9478 121.457L101.471 121.558L101.435 123.52L95.9117 123.419L96.3585 122.922L96.2453 129.09L95.816 128.633L101.777 128.743L101.222 129.181L101.707 126.61Z" fill="white"/>
<path d="M111.745 131.169C110.542 131.147 109.453 130.846 108.427 130.155C107.454 129.52 106.651 128.552 106.071 127.363C105.491 126.175 105.246 124.6 105.279 122.806C105.312 121.012 105.612 119.559 106.238 118.28C106.862 117.058 107.701 116.064 108.806 115.467C109.912 114.815 111.176 114.501 112.598 114.527C113.364 114.541 114.182 114.669 114.999 114.852C115.816 115.035 116.685 115.388 117.553 115.796L117.316 119.774L115.675 119.744L115.233 116.987L115.716 117.501C115.174 117.267 114.63 117.088 114.14 116.967C113.65 116.846 113.158 116.781 112.721 116.773C111.791 116.756 111.021 116.966 110.412 117.404C109.747 117.84 109.242 118.504 108.898 119.395C108.553 120.286 108.371 121.292 108.348 122.526C108.322 123.927 108.465 125.108 108.831 126.012C109.197 126.916 109.676 127.654 110.323 128.17C110.971 128.631 111.733 128.869 112.553 128.884C113.155 128.895 113.813 128.795 114.529 128.528C115.191 128.26 115.909 127.88 116.575 127.332L117.585 128.977C116.64 129.745 115.7 130.288 114.709 130.663C113.717 131.037 112.784 131.188 111.8 131.17L111.745 131.169Z" fill="white"/>
<path d="M118.994 129.676C119.002 129.227 119.173 128.838 119.507 128.507C119.841 128.233 120.227 128.072 120.609 128.079C121.102 128.088 121.481 128.263 121.75 128.548C122.018 128.834 122.175 129.229 122.166 129.734C122.156 130.238 121.986 130.572 121.652 130.902C121.317 131.233 120.987 131.339 120.55 131.331C120.058 131.322 119.678 131.146 119.409 130.861C119.141 130.576 118.984 130.18 118.994 129.676Z" fill="white"/>
<path d="M134.196 130.011L133.663 129.272L136.605 129.943L136.578 131.401L128.429 131.251L128.456 129.793L131.966 129.297L131.406 130.016L131.636 117.513L132.401 117.527L128.586 119.7L127.743 117.946L132.172 115.111L134.469 115.153L134.195 130.067L134.196 130.011Z" fill="white"/>
<path d="M146.597 121.938L146.672 123.846C146.007 124.283 145.29 124.606 144.52 124.816C143.75 125.082 142.982 125.181 142.216 125.167C141.341 125.15 140.524 124.967 139.82 124.562C139.116 124.156 138.579 123.642 138.155 122.905C137.785 122.169 137.582 121.324 137.546 120.314C137.566 119.192 137.804 118.187 138.31 117.411C138.817 116.635 139.484 116.031 140.368 115.598C141.251 115.166 142.184 115.015 143.278 115.035C144.371 115.055 145.406 115.298 146.272 115.819C147.138 116.339 147.834 117.137 148.307 118.212C148.78 119.286 149.027 120.693 148.996 122.431C148.961 124.337 148.603 125.957 147.975 127.347C147.348 128.738 146.399 129.786 145.236 130.55C144.073 131.314 142.698 131.681 141.112 131.652C140.292 131.637 139.419 131.509 138.494 131.211L138.75 129.197C139.132 129.26 139.514 129.323 139.896 129.386C140.277 129.449 140.551 129.454 140.879 129.461C142.082 129.483 143.126 129.221 143.902 128.675C144.678 128.128 145.241 127.297 145.643 126.239C146.046 125.181 146.234 123.838 146.262 122.324C146.294 120.586 146.043 119.348 145.566 118.498C145.09 117.648 144.331 117.241 143.292 117.222C142.417 117.206 141.756 117.474 141.254 117.97C140.753 118.466 140.465 119.245 140.447 120.199C140.435 120.871 140.534 121.434 140.8 121.831C141.011 122.284 141.334 122.57 141.767 122.803C142.201 123.035 142.636 123.155 143.128 123.164C143.675 123.174 144.279 123.073 144.885 122.86C145.49 122.647 146.043 122.32 146.598 121.882L146.597 121.938Z" fill="white"/>
<path d="M86.5318 139.736L85.5412 140.054L85.7094 139.833L85.593 146.168L85.4331 145.941L86.4124 146.239L86.4 146.912L83.3374 146.856L83.3497 146.183L84.3393 145.921L84.1711 146.142L84.2874 139.807L84.4474 140.034L83.4134 139.735L83.4258 139.062L86.4884 139.118L86.4771 139.735L86.5318 139.736Z" fill="white"/>
<path d="M90.8087 139.085C91.3009 139.094 91.7921 139.159 92.2265 139.336C92.661 139.512 92.985 139.742 93.3069 140.084C93.6289 140.427 93.8405 140.823 93.9963 141.275C94.1521 141.726 94.2512 142.289 94.2389 142.962C94.2224 143.859 94.0449 144.585 93.7602 145.197C93.4754 145.808 92.9749 146.248 92.4229 146.518C91.8698 146.844 91.2115 146.944 90.5005 146.931L87.3285 146.873L87.3409 146.2L88.3851 145.939L88.1612 146.215L88.2796 139.768L88.4932 140.052L87.4593 139.753L87.4716 139.08L89.8233 139.123L90.8634 139.086L90.8087 139.085ZM90.518 145.978C90.518 145.978 91.0649 145.988 91.2857 145.88C91.5613 145.773 91.7821 145.665 92.0049 145.445C92.2278 145.224 92.397 144.947 92.5136 144.557C92.6302 144.166 92.7489 143.664 92.7602 143.047C92.7715 142.43 92.725 141.981 92.6229 141.586C92.5207 141.192 92.3618 140.908 92.1471 140.68C91.9325 140.452 91.7158 140.336 91.4991 140.22C91.2824 140.103 91.009 140.098 90.7355 140.093L89.3683 140.068L89.5911 139.848L89.4748 146.183L89.2602 145.955L90.518 145.978Z" fill="white"/>
<path d="M94.6692 146.335C94.6692 146.335 94.7311 145.943 94.8982 145.778C95.0654 145.613 95.2305 145.56 95.4492 145.564C95.668 145.568 95.8857 145.628 95.992 145.798C96.0983 145.969 96.2046 146.139 96.2005 146.363C96.1964 146.587 96.1376 146.811 95.9714 146.92C95.8043 147.085 95.6392 147.138 95.4204 147.134C95.2017 147.13 94.9839 147.07 94.8776 146.9C94.7156 146.784 94.6651 146.559 94.6692 146.335Z" fill="white"/>
<path d="M104.466 140.289L101.441 147.132L99.9643 147.105L103.101 140.152L103.316 140.38L99.9248 140.318L100.202 140.099L99.9042 141.439L99.0838 141.424L99.125 139.182L104.485 139.28L104.467 140.233L104.466 140.289Z" fill="white"/>
<path d="M107.506 147.412C107.178 147.406 106.85 147.4 106.524 147.282C106.198 147.164 105.926 147.046 105.656 146.873C105.386 146.7 105.226 146.473 105.067 146.189C104.908 145.906 104.858 145.625 104.865 145.288C104.87 145.008 104.875 144.728 105.043 144.506C105.157 144.284 105.325 144.063 105.492 143.898C105.659 143.732 105.881 143.568 106.156 143.461C106.377 143.353 106.653 143.246 106.873 143.194L107.631 143.6C107.631 143.6 107.301 143.707 107.135 143.816C106.97 143.869 106.803 143.978 106.636 144.143C106.469 144.308 106.358 144.418 106.3 144.585C106.187 144.752 106.129 144.975 106.124 145.199C106.119 145.48 106.17 145.705 106.33 145.932C106.435 146.158 106.597 146.273 106.814 146.39C107.031 146.506 107.248 146.566 107.576 146.572C107.905 146.578 108.123 146.582 108.345 146.418C108.566 146.31 108.733 146.144 108.9 145.979C109.014 145.757 109.127 145.535 109.131 145.31C109.137 145.03 109.086 144.805 108.925 144.634C108.764 144.462 108.603 144.291 108.332 144.174C108.115 144.058 107.844 143.941 107.572 143.824C107.301 143.707 106.975 143.588 106.703 143.471C106.432 143.354 106.161 143.237 105.945 143.065C105.729 142.892 105.514 142.72 105.355 142.437C105.195 142.21 105.146 141.872 105.152 141.536C105.162 141.031 105.278 140.641 105.557 140.365C105.836 140.034 106.169 139.816 106.555 139.655C106.94 139.494 107.379 139.445 107.871 139.455C108.363 139.464 108.745 139.527 109.125 139.702C109.505 139.877 109.829 140.107 110.042 140.392C110.256 140.676 110.358 141.071 110.35 141.519C110.345 141.799 110.341 142.024 110.172 142.245C110.059 142.467 109.946 142.633 109.725 142.798C109.557 142.963 109.337 143.071 109.116 143.179C108.895 143.287 108.675 143.339 108.401 143.39L107.479 142.925C107.479 142.925 107.863 142.876 108.084 142.767C108.305 142.659 108.415 142.605 108.581 142.496C108.747 142.387 108.859 142.277 108.917 142.11C108.974 141.943 109.032 141.775 109.036 141.551C109.04 141.327 108.99 141.102 108.884 140.931C108.777 140.761 108.615 140.646 108.399 140.53C108.182 140.414 107.963 140.41 107.744 140.406C107.526 140.402 107.307 140.398 107.086 140.506C106.866 140.558 106.699 140.723 106.587 140.889C106.474 141.055 106.416 141.223 106.411 141.503C106.406 141.783 106.458 141.952 106.618 142.18C106.779 142.351 106.94 142.522 107.211 142.639C107.482 142.756 107.699 142.873 108.025 142.991C108.296 143.108 108.568 143.225 108.894 143.343C109.165 143.46 109.437 143.577 109.652 143.75C109.868 143.922 110.083 144.15 110.243 144.377C110.403 144.605 110.451 144.942 110.444 145.335C110.437 145.727 110.321 146.061 110.152 146.339C109.983 146.616 109.759 146.892 109.482 147.056C109.206 147.219 108.875 147.381 108.544 147.487C108.214 147.593 107.83 147.642 107.502 147.636L107.506 147.412Z" fill="white"/>
<path d="M113.468 147.521C113.03 147.513 112.648 147.506 112.213 147.33C111.778 147.21 111.398 147.035 111.073 146.86L111.419 145.913C111.744 146.088 112.07 146.206 112.396 146.324C112.722 146.442 113.049 146.504 113.432 146.511C113.815 146.518 114.033 146.522 114.255 146.358C114.476 146.25 114.697 146.142 114.865 145.921C115.033 145.699 115.092 145.476 115.098 145.14C115.103 144.859 115.053 144.634 114.947 144.464C114.84 144.294 114.679 144.122 114.408 144.005C114.137 143.888 113.864 143.827 113.481 143.82L112.552 143.803L112.57 142.794L113.5 142.811C113.992 142.82 114.377 142.715 114.654 142.495C114.932 142.276 115.047 141.998 115.054 141.605C115.062 141.157 114.958 140.875 114.687 140.701C114.417 140.528 114.091 140.41 113.653 140.402C113.435 140.398 113.216 140.394 112.941 140.445C112.667 140.496 112.502 140.549 112.227 140.6L112.395 140.435L112.263 141.666L111.442 141.651L111.367 139.799C111.807 139.639 112.246 139.591 112.685 139.487C113.124 139.439 113.508 139.39 113.945 139.398C114.438 139.407 114.874 139.471 115.199 139.645C115.524 139.819 115.849 139.994 116.063 140.278C116.276 140.562 116.379 140.957 116.37 141.405C116.36 141.966 116.188 142.411 115.853 142.742C115.519 143.072 115.024 143.231 114.42 143.332L114.422 143.22C115.079 143.232 115.621 143.467 115.943 143.809C116.265 144.151 116.421 144.603 116.41 145.22C116.403 145.612 116.341 146.004 116.171 146.281C116.002 146.558 115.778 146.835 115.502 146.998C115.225 147.161 114.894 147.323 114.564 147.429C114.234 147.535 113.85 147.584 113.412 147.576L113.468 147.521Z" fill="white"/>
<path d="M121.814 142.851L121.797 143.804C121.797 143.804 121.188 144.186 120.803 144.291C120.418 144.396 120.089 144.446 119.706 144.439C119.269 144.431 118.888 144.312 118.508 144.137C118.183 143.962 117.915 143.677 117.702 143.337C117.49 142.996 117.442 142.603 117.397 142.097C117.407 141.536 117.525 141.09 117.751 140.702C117.977 140.313 118.31 140.039 118.752 139.823C119.193 139.606 119.633 139.502 120.18 139.512C120.727 139.522 121.217 139.643 121.65 139.876C122.084 140.108 122.405 140.507 122.613 141.071C122.823 141.58 122.973 142.312 122.958 143.153C122.941 144.05 122.762 144.888 122.476 145.555C122.135 146.222 121.688 146.775 121.135 147.101C120.582 147.428 119.921 147.64 119.155 147.626C118.718 147.618 118.336 147.555 117.846 147.433L117.974 146.426C117.974 146.426 118.356 146.489 118.52 146.492C118.684 146.495 118.848 146.498 119.012 146.501C119.614 146.512 120.108 146.409 120.496 146.136C120.884 145.863 121.164 145.475 121.338 144.974C121.511 144.472 121.633 143.801 121.646 143.073C121.662 142.232 121.564 141.613 121.297 141.215C121.086 140.819 120.707 140.588 120.215 140.578C119.777 140.57 119.447 140.677 119.223 140.953C118.999 141.229 118.829 141.563 118.821 142.011C118.815 142.348 118.864 142.629 118.971 142.799C119.076 143.025 119.237 143.197 119.455 143.257C119.671 143.373 119.889 143.433 120.108 143.437C120.381 143.442 120.655 143.447 120.931 143.284C121.207 143.177 121.483 143.013 121.761 142.794L121.814 142.851Z" fill="white"/>
<path d="M123.861 147.6L123.882 146.423C124.716 145.709 125.438 145.105 125.995 144.555C126.553 144.004 126.944 143.562 127.225 143.119C127.507 142.675 127.624 142.285 127.631 141.892C127.638 141.5 127.535 141.162 127.264 140.988C126.995 140.759 126.668 140.697 126.285 140.69C126.066 140.686 125.902 140.683 125.683 140.735C125.464 140.731 125.243 140.839 125.023 140.891L125.191 140.67L125.004 141.956L124.183 141.941L124.109 140.033C124.55 139.873 124.988 139.825 125.428 139.721C125.866 139.673 126.25 139.624 126.578 139.63C127.07 139.639 127.507 139.703 127.941 139.879C128.376 140.055 128.646 140.229 128.859 140.569C129.072 140.853 129.175 141.248 129.165 141.752C129.155 142.313 129.036 142.816 128.699 143.314C128.416 143.814 128.023 144.367 127.467 144.862C126.911 145.356 126.297 146.018 125.519 146.677L125.522 146.509L129.241 146.577L129.221 147.642L123.971 147.546L123.861 147.6Z" fill="white"/>
<path d="M133.47 145.645L133.793 145.932L129.801 145.858L129.654 144.902L133.305 139.753L134.889 139.894L134.792 145.165L134.469 144.878L136 144.906L135.981 145.972L134.449 145.944L134.783 145.669L134.745 147.744L133.377 147.719L133.415 145.644L133.47 145.645ZM133.867 144.867L133.534 145.142L133.619 140.544L134.056 140.552L130.796 145.316L130.531 144.806L133.867 144.867Z" fill="white"/>
</g>
</g>
<g filter="url(#filter1_if_708_790)">
<path d="M4.24921 95.4339C4.87315 94.498 5.84805 94.6461 6.76836 94.6383C7.00234 94.1392 7.25972 93.6556 7.4625 93.1409C7.64968 92.6651 7.59508 91.9554 8.26582 91.9398C8.32821 91.9398 8.41401 92.0334 8.4842 92.0802C11.6195 82.2375 16.1353 73.0032 21.8131 64.619C21.8053 64.5956 21.7819 64.5878 21.7741 64.5722C21.2048 64.1667 20.6354 63.7611 20.0661 63.3556C19.7541 63.1918 19.4421 63.0436 19.1224 62.8954C19.4343 63.0514 19.7541 63.2074 20.0661 63.3556C19.7541 63.1996 19.4421 63.0514 19.1224 62.8954C19.0132 62.8798 18.904 62.872 18.7948 62.8642C18.2177 63.7143 17.6795 64.5878 17.1336 65.4613C17.6405 65.5003 18.1787 65.5549 18.1865 66.2335C18.1865 66.9354 17.5703 66.9978 17.0634 67.0758C16.7436 67.1304 16.4394 67.0758 16.1743 66.9588C10.746 75.8188 6.54998 85.5054 3.78125 95.7692C3.94503 95.6678 4.07762 95.5353 4.24921 95.4417V95.4339ZM10.512 79.0086C10.7772 78.5641 11.1515 78.1039 11.7677 78.4627C12.2356 78.7357 12.5554 79.149 12.3214 79.7574C11.9939 80.2409 11.5493 80.4749 10.9956 80.2409C10.4496 80.0148 10.1766 79.5702 10.5198 79.0008L10.512 79.0086Z" fill="#F7F6F0" fill-opacity="0.05"/>
<path d="M190.836 53.7922L191.108 53.5747C190.999 53.6368 190.89 53.6912 190.773 53.7534C190.797 53.7689 190.805 53.7767 190.836 53.7922Z" fill="#F7F6F0" fill-opacity="0.05"/>
<path d="M216.136 107.815C216.183 107.854 216.238 107.87 216.285 107.917C217.018 108.018 217.712 108.283 217.525 109.157C217.416 109.656 216.909 109.757 216.402 109.718C217.072 114.554 217.447 119.483 217.447 124.498C217.447 167.144 192.364 204.027 156.184 221.208C156.667 221.263 157.19 221.411 157.79 221.692C158.742 222.144 159.062 222.839 159.163 223.634C159.779 223.33 160.38 223.01 160.988 222.698C161.128 221.7 161.643 221.201 162.634 221.232C162.953 221.24 163.203 221.318 163.421 221.435C164.802 220.678 166.174 219.89 167.516 219.079C167.329 218.916 167.204 218.705 167.321 218.401C167.407 218.19 167.687 217.972 167.914 217.925C168.483 217.808 169.052 217.753 169.606 217.746C172.718 215.765 175.721 213.635 178.606 211.366C178.622 210.5 179.106 209.759 179.698 209.12C180.268 208.496 181.071 208.527 181.828 208.745C185.212 205.875 188.426 202.802 191.444 199.55C191.171 199.137 191.054 198.661 191.14 198.084C191.304 197.023 191.896 196.321 192.949 196.126C193.464 196.032 194.01 196.017 194.595 195.994C205.732 182.906 213.867 167.206 217.946 149.947C217.899 149.845 217.813 149.791 217.79 149.674C217.533 148.371 217.829 147.186 218.749 146.211C218.765 146.195 218.773 146.187 218.788 146.172C219.771 141.235 220.426 136.173 220.722 131.026C220.621 130.753 220.644 130.495 220.785 130.246C220.878 128.343 220.933 126.432 220.933 124.506C220.933 119.966 220.629 115.497 220.091 111.099C219.88 110.927 219.74 110.685 219.747 110.366C219.747 110.186 219.864 110.061 219.942 109.913C219.771 108.595 219.576 107.277 219.35 105.975C219.155 106.107 218.905 106.162 218.609 106.099C218.507 106.076 218.351 105.897 218.375 105.819C218.484 105.366 218.78 105.124 219.186 105.015C215.98 87.0769 208.439 70.6283 197.676 56.7924C196.545 57.237 195.406 57.666 194.267 58.1027C205.483 72.2272 213.22 89.2295 216.144 107.823L216.136 107.815Z" fill="#F7F6F0" fill-opacity="0.05"/>
<path d="M29.2813 49.6192C29.2813 49.6192 29.3125 49.6192 29.3281 49.6192C28.8211 53.3706 27.7916 54.6341 25.2725 54.174C23.4631 56.3655 21.755 58.6429 20.1094 60.9749C20.1406 61.0061 20.1718 61.0217 20.203 61.0529C20.203 61.0529 20.203 61.0529 20.203 61.0451C20.4681 61.0295 20.7333 61.0607 20.9829 61.1387C21.4274 61.2245 21.7316 61.4819 21.8642 61.9186C22.4258 61.8562 23.0263 61.0295 23.5254 62.02C23.5644 62.02 23.5956 62.0278 23.6346 62.0356C43.086 35.0892 74.7353 17.4941 110.44 17.4941C119.815 17.4941 128.909 18.7185 137.582 20.9881C137.644 20.5202 137.816 20.099 138.213 19.787C139.126 19.0617 140.007 19.2957 140.818 20.021C141.505 20.06 142.074 20.3174 142.456 20.9179H142.472C142.753 20.9413 143.026 20.9569 143.306 20.9725C143.501 20.8633 143.704 20.7853 143.922 20.7464C144.016 20.2394 144.016 19.7402 144.039 19.2411C133.44 15.8484 122.155 14 110.448 14C78.3854 14 49.4814 27.7345 29.2813 49.6192Z" fill="#F7F6F0" fill-opacity="0.05"/>
<path d="M144.933 22.4982C144.84 22.7088 144.746 22.9194 144.652 23.13C148.061 24.2842 151.399 25.6023 154.643 27.0842C155.072 26.3978 155.907 25.9221 156.687 26.1717C157.045 26.2887 157.357 26.5616 157.326 26.5382C157.49 27.3572 157.373 27.8563 157.116 28.2229C169.181 34.0957 179.967 42.1679 188.983 51.917C189.085 51.917 189.178 51.9014 189.28 51.9014C189.326 51.6284 189.381 51.3633 189.436 51.0903C189.373 50.3805 189.482 49.7566 190.278 49.4992C190.52 49.4368 190.769 49.4212 191.019 49.4524C191.315 49.7098 191.596 49.9828 191.908 50.2246C191.612 49.9672 191.315 49.7098 191.019 49.4524C191.487 49.507 191.768 49.78 191.908 50.2246C192.033 50.9811 191.877 51.6128 191.12 51.9794C191.105 52.5097 191.081 53.0401 191.066 53.5704C191.3 53.898 191.526 54.2256 191.76 54.5531C192.072 54.8183 192.392 55.0835 192.704 55.3487C193.866 55.2941 195.028 55.2707 196.127 54.8339C188.266 45.1784 178.813 36.88 168.167 30.3287C168.081 30.4535 167.996 30.586 167.871 30.6484C167.325 30.937 166.826 30.664 166.467 30.1727C166.389 30.0635 166.303 29.9465 166.256 29.8217C166.155 29.5643 166.077 29.3148 166.014 29.0574C159.689 25.3605 152.974 22.2798 145.939 19.8855C145.877 20.5796 145.768 21.2659 145.502 21.9367C145.409 22.1628 145.12 22.311 144.925 22.4982H144.933Z" fill="#F7F6F0" fill-opacity="0.05"/>
<path d="M153.115 223.302C153.341 222.881 153.583 222.577 153.825 222.281C148.256 224.761 142.453 226.781 136.44 228.286C136.44 228.31 136.464 228.325 136.464 228.349C136.456 229.019 135.621 229.503 134.155 229.479C133.991 229.44 133.43 229.394 132.93 229.199C132.884 229.183 132.852 229.152 132.806 229.128C125.599 230.665 118.135 231.492 110.476 231.492C80.1919 231.492 52.8243 218.818 33.334 198.532C33.1624 198.945 32.8427 199.226 32.2967 199.242C31.6806 199.257 31.2048 198.821 31.314 198.251C31.4076 197.768 31.7508 197.487 32.1953 197.339C29.5124 194.461 26.9776 191.443 24.6222 188.284C24.669 188.479 24.6456 188.76 24.5364 188.892C24.3883 189.064 24.0373 189.22 23.8345 189.165C22.7894 188.884 21.7755 188.518 21.0814 187.605L21.0424 187.59C20.473 187.597 20.2079 187.332 20.2937 186.755C20.1845 186.498 20.1845 186.24 20.3093 185.983C20.0987 185.11 20.4808 184.431 21.0502 183.823C21.136 183.737 21.2218 183.635 21.3154 183.55C18.765 179.712 16.4564 175.711 14.413 171.547C14.2102 172.171 13.9295 172.623 13.4615 172.935C12.9936 173.247 12.4398 173.356 11.9173 172.958C11.4571 172.607 11.1529 172.178 11.0827 171.586C11.0047 170.93 11.3479 170.525 11.9095 170.33C12.432 170.151 12.9936 170.08 13.5317 169.979C13.5785 169.971 13.6175 169.979 13.6643 169.979C7.15191 156.166 3.48627 140.747 3.48627 124.494C3.48627 114.105 4.99932 104.067 7.77585 94.5602C7.45609 94.5914 7.12852 94.5992 6.80875 94.6304H6.80095C6.49678 95.4181 5.94303 95.9641 5.2021 96.3306C4.72635 97.1808 4.1492 97.9529 3.22109 98.3272C3.20549 98.3272 3.1821 98.3194 3.1587 98.3272C1.11529 106.719 0 115.478 0 124.494C0 160.253 17.0882 192.082 43.5198 212.29C43.98 212.009 44.4947 211.877 45.0407 212.126C45.7582 212.454 46.4211 212.984 46.9983 213.538C47.8718 214.372 48.2384 215.683 49.4785 216.19C50.3598 216.034 51.1163 216.236 51.3035 217.196C51.3737 217.547 51.5297 217.757 51.6856 217.976C51.9508 218.147 52.2082 218.319 52.4812 218.483C52.6216 218.522 52.7073 218.615 52.8789 218.631C52.8243 217.89 52.9569 217.274 53.7914 217.063C55.9128 217.219 56.2482 217.726 55.2811 219.356C55.1641 219.559 54.9925 219.723 54.8287 219.894C59.0949 222.398 63.5405 224.628 68.1421 226.547C67.6117 226.243 67.2374 225.595 67.2998 224.839C67.3465 224.246 67.6819 223.786 68.3059 223.716C69.2964 223.607 70.2947 224.472 70.2869 225.377C70.1933 226.173 69.6863 226.617 68.961 226.734C68.7894 226.765 68.6334 226.719 68.4774 226.68C69.8891 227.264 71.3008 227.826 72.7358 228.349C72.9152 228.013 73.1726 227.748 73.3208 227.389C73.5002 226.96 74.0149 226.875 74.3971 227.038C74.748 227.186 75.0912 227.483 75.3018 227.795C75.5982 228.247 75.5202 228.785 75.2784 229.214C86.3455 232.942 98.177 235.001 110.484 235.001C118.026 235.001 125.396 234.237 132.525 232.786C132.938 232.217 133.43 232.131 134.217 232.404C140.745 230.969 147.071 228.973 153.115 226.438C152.663 225.494 152.499 224.496 153.123 223.326L153.115 223.302ZM2.46456 134.524C2.29298 134.469 2.21499 134.141 2.098 133.946C2.26958 133.322 2.72974 133.167 3.28349 133.315C3.44727 133.361 3.67345 133.705 3.63445 133.845C3.46287 134.391 3.07291 134.734 2.47236 134.524H2.46456Z" fill="#F7F6F0" fill-opacity="0.05"/>
<g clip-path="url(#clip2_708_790)">
<path d="M29.158 121.162L27.6971 120.968L27.424 118.12L28.0624 118.801L14.4278 116.99L14.9803 116.442L14.4688 120.67L13.9941 119.936L16.9045 120.937L16.6549 122.717L12.1097 122.131L13.8775 108.562L18.4227 109.147L18.1731 110.926L15.1869 111.094L15.7404 110.491L15.2289 114.719L14.8074 114.042L28.4419 115.853L27.6204 116.284L28.5913 113.626L30.0521 113.82L29.1038 121.161L29.158 121.162Z" fill="#F7F6F0" fill-opacity="0.05"/>
<path d="M34.0925 94.55L33.1606 95.0904L34.4424 93.2185L35.8439 93.6902L33.7181 100.174L32.3166 99.7019L32.468 97.3633L32.7861 97.7594L29.2619 97.6947L29.756 97.3693L27.6302 103.853L27.4225 103.347L30.1488 105.516L29.8235 105.51L30.9427 103.635L32.3442 104.106L30.3913 110.036L28.9898 109.564L29.0297 107.39L29.4481 108.234L16.8417 97.6896L17.7092 94.7509L34.0383 94.549L34.0925 94.55ZM26.4067 102.548L25.9709 102.651L27.752 97.221L28.1233 97.6738L18.7465 97.3344L18.9757 96.6696L26.4067 102.548Z" fill="#F7F6F0" fill-opacity="0.05"/>
<path d="M27.9784 82.006C28.407 82.2926 28.8398 82.3563 29.2756 82.2528C29.7114 82.1493 30.1492 81.9344 30.6444 81.5533C31.1395 81.1721 31.5794 80.8457 32.0766 80.3531C32.5727 79.9162 33.0689 79.4794 33.6192 79.0435C34.1154 78.6066 34.6637 78.2822 35.2652 78.0145C35.8668 77.7468 36.4652 77.6463 37.1159 77.6583C37.7665 77.6702 38.4672 77.9061 39.1639 78.3649C40.1828 78.9968 40.8201 79.7332 41.1823 80.6875C41.5444 81.6419 41.5812 82.5903 41.3991 83.6461C41.217 84.702 40.8181 85.7538 40.2012 86.8575C39.7541 87.574 39.2529 88.2895 38.6984 88.9483C38.1439 89.6071 37.481 90.2638 36.7659 90.8082L33.122 88.3999L34.0182 86.8554L36.7629 88.0208L36.1665 88.0098C36.6064 87.6834 37.0473 87.3013 37.435 86.8624C37.8227 86.4236 38.1562 85.9837 38.4355 85.5429C38.771 84.9916 38.9992 84.3825 39.1178 83.8272C39.2365 83.2719 39.1925 82.7137 39.0381 82.2648C38.8836 81.816 38.5654 81.42 38.0826 81.1324C37.5997 80.8448 37.167 80.7811 36.7322 80.8288C36.2964 80.9323 35.8044 81.1463 35.3645 81.4727C34.9246 81.7991 34.4294 82.1802 33.9323 82.6728C33.4351 83.1654 32.94 83.5466 32.4438 83.9834C31.9476 84.4203 31.3993 84.7447 30.7978 85.0124C30.2505 85.2811 29.5968 85.4363 29.0014 85.3696C28.3508 85.3577 27.7042 85.1228 26.9534 84.6631C26.0419 84.0889 25.4035 83.4082 25.0393 82.5653C24.6752 81.7224 24.6373 80.8297 24.7642 79.8286C24.9452 78.8285 25.289 77.8314 25.8496 76.8382C26.2424 76.1207 26.7427 75.4609 27.3524 74.7474C27.9611 74.0896 28.624 73.4328 29.339 72.8885L32.6587 75.2351L31.7625 76.7795L29.2316 75.7854L29.7216 75.6829C29.337 75.9545 29.0055 76.2829 28.6731 76.6671C28.3406 77.0512 28.0623 77.4363 27.783 77.8772C27.5027 78.3737 27.2756 78.927 27.158 79.4266C27.0403 79.9262 27.0311 80.4277 27.1314 80.8755C27.2858 81.3244 27.5508 81.6637 28.0337 81.9513L27.9784 82.006Z" fill="#F7F6F0" fill-opacity="0.05"/>
<path d="M46.9072 76.2215L45.787 75.1974L47.1343 72.7136L47.3338 73.6649L37.0926 64.2786L37.8547 64.1254L35.0844 67.3078L35.1008 66.4162L37.0077 68.9041L35.8435 70.2764L32.4298 67.1476L41.2961 56.8857L44.7099 60.0144L43.5457 61.3867L40.9718 59.7786L41.734 59.6253L38.9637 62.8078L38.978 62.0276L49.2734 71.4149L48.3537 71.2865L50.6074 69.6555L51.7276 70.6795L46.9072 76.2215Z" fill="#F7F6F0" fill-opacity="0.05"/>
<path d="M61.6968 56.3126L63.0728 55.2229L65.665 58.7826L55.8166 66.4063L54.9164 65.2191L56.3609 63.3502L56.3476 64.0747L48.1472 52.8305L48.848 53.0663L46.715 54.0306L45.8148 52.8434L49.559 49.7903L55.3911 45.2704L57.878 48.6608L56.4479 49.7495L54.6351 48.0438L55.34 48.0568L50.4981 51.8144L50.5104 51.1457L54.2167 56.0637L53.5681 55.9403L58.2453 52.2912L59.4616 53.9859L54.7844 57.6351L54.7977 56.9106L58.7148 62.167L58.0642 62.1551L63.128 58.1228L62.9521 58.8442L61.75 56.3693L61.6968 56.3126Z" fill="#F7F6F0" fill-opacity="0.05"/>
<path d="M88.3442 46.7673L87.3754 46.3592L89.6014 46.2329L90.118 47.636L83.8931 49.9189L83.3765 48.5157L85.2445 47.2121L85.1268 47.7116L83.0103 44.8297L83.6036 45.0078L77.3786 47.2906L77.6047 46.7931L77.6477 50.3617L77.4359 50.0791L79.5556 49.8392L80.0712 51.2981L74.3372 53.4227L73.8206 52.0196L75.5802 50.7139L75.1311 51.5419L75.436 34.9348L78.1142 33.8133L88.3974 46.824L88.3442 46.7673ZM77.4656 45.5083L77.1464 45.168L82.3893 43.2016L82.2706 43.7569L76.7178 36.0176L77.3725 35.8066L77.5208 45.4536L77.4656 45.5083Z" fill="#F7F6F0" fill-opacity="0.05"/>
<path d="M106.248 28.5322L112.335 27.8078L112.47 29.3154L110.341 30.1125L110.952 29.2876L107.997 45.5115L105.225 45.7951L100.261 32.6033L100.803 32.6133L98.0543 46.4439L95.283 46.7275L89.9215 31.5216L90.2918 32.0301L88.3982 31.7723L88.2632 30.2647L94.6222 29.5452L94.7572 31.0529L92.6263 31.9057L92.9629 31.2987L97.0159 43.9162L96.4195 43.9052L99.0753 29.2367L101.739 28.8954L106.851 42.9261L106.253 43.0266L108.338 29.9085L108.654 30.4161L106.326 30.1503L106.191 28.6427L106.248 28.5322Z" fill="#F7F6F0" fill-opacity="0.05"/>
<path d="M129.079 46.456L128.39 45.6072L130.379 46.5914L130.134 48.0921L123.591 47.0242L123.836 45.5235L126.118 45.2867L125.785 45.6708L125.254 42.0933L125.68 42.5471L119.137 41.4792L119.577 41.1528L117.946 44.3005L117.952 43.9661L119.89 44.7821L119.645 46.2828L113.588 45.3354L113.833 43.8347L115.953 43.5392L115.185 44.0268L123.208 29.4568L126.184 29.846L129.136 46.3456L129.079 46.456ZM120.14 39.9925L119.986 39.5437L125.502 40.4254L125.168 40.8653L123.934 31.3098L124.582 31.4332L120.195 39.9935L120.14 39.9925Z" fill="#F7F6F0" fill-opacity="0.05"/>
<path d="M132.29 48.8564L132.859 47.4174L135.186 47.6831L134.581 48.118L139.595 34.9979L139.851 35.8388L137.817 34.3521L138.386 32.9131L143.018 34.6706L145.333 35.605C147.056 36.3056 148.232 37.2192 148.809 38.289C149.439 39.4155 149.417 40.6415 148.903 42.0258C148.392 43.2985 147.616 44.1763 146.576 44.7146C145.481 45.252 144.126 45.2271 142.453 44.7504L142.568 44.4181C143.159 44.7076 143.588 44.9942 143.853 45.3336C144.118 45.6729 144.383 46.0123 144.483 46.4601C144.583 46.9079 144.683 47.3557 144.728 47.8583L145.137 52.2141L144.555 51.4229L146.264 52.848L145.695 54.287L142.357 52.9435L142.02 47.6971C142.033 46.9726 141.935 46.4133 141.833 46.0212C141.732 45.6291 141.576 45.2918 141.31 45.0082C141.044 44.7245 140.614 44.4937 140.021 44.3155L138.729 43.7901L139.329 43.5781L137.163 49.2803L137.014 48.5529L139.155 50.0974L138.586 51.5363L132.126 48.9091L132.29 48.8564ZM139.833 42.6954L139.633 41.7998L141.572 42.5601C142.702 43.0268 143.623 43.0995 144.386 42.8905C145.15 42.6258 145.702 42.0785 146.099 41.1381C146.386 40.3071 146.398 39.6384 146.139 38.9646C145.825 38.3457 145.238 37.8332 144.269 37.4251L141.739 36.3752L142.395 36.1085L139.89 42.585L139.833 42.6954Z" fill="#F7F6F0" fill-opacity="0.05"/>
<path d="M163.964 45.8144C164.875 46.4443 165.675 47.1837 166.256 48.0306C166.837 48.8775 167.201 49.7203 167.399 50.7274C167.545 51.6778 167.526 52.6809 167.235 53.7905C166.944 54.8444 166.436 55.95 165.655 57.1063C164.595 58.7036 163.435 59.8529 162.121 60.5535C160.86 61.2551 159.5 61.5088 158.146 61.3725C156.793 61.2362 155.447 60.7097 154.108 59.7374L148.379 55.7299L149.216 54.4631L151.424 55.2841L150.714 55.5498L158.467 43.9295L158.452 44.7097L156.913 42.8975L157.749 41.6307L162.036 44.4968L163.91 45.8134L163.964 45.8144ZM155.441 58.0338C155.923 58.3771 156.461 58.61 157.001 58.7871C157.54 58.9642 158.19 58.9762 158.79 58.8199C159.442 58.7204 160.099 58.398 160.814 57.8537C161.529 57.3093 162.25 56.4863 162.975 55.3847C163.7 54.2831 164.151 53.3437 164.384 52.5117C164.616 51.6798 164.683 50.9563 164.586 50.3413C164.489 49.7263 164.228 49.164 163.911 48.7122C163.594 48.2604 163.167 47.8624 162.74 47.52L160.276 45.8024L160.929 45.7029L153.343 57.1033L153.193 56.4316L155.441 58.0338Z" fill="#F7F6F0" fill-opacity="0.05"/>
<path d="M174.976 60.6223C174.589 61.0054 174.42 61.3925 174.411 61.8384C174.403 62.2842 174.502 62.7877 174.655 63.348C174.807 63.9083 175.068 64.4706 175.382 65.0895C175.642 65.7075 175.956 66.3265 176.162 66.9435C176.367 67.5605 176.572 68.2332 176.669 68.8482C176.766 69.4632 176.7 70.131 176.525 70.7967C176.351 71.4068 175.905 72.0675 175.298 72.6139C174.47 73.4349 173.54 73.8638 172.616 73.9583C171.638 74.0518 170.719 73.8677 169.753 73.3483C168.785 72.8845 167.93 72.1998 167.078 71.2923C166.493 70.6683 165.963 69.9896 165.544 69.2014C165.125 68.4133 164.651 67.6241 164.341 66.7822L167.595 63.8316L168.764 65.1353L166.93 67.5545L167.104 66.9444C167.256 67.5047 167.518 68.0112 167.834 68.5188C168.151 69.0263 168.468 69.4781 168.84 69.8752C169.265 70.3847 169.746 70.728 170.284 71.0166C170.766 71.3042 171.252 71.4246 171.741 71.3779C172.229 71.3868 172.668 71.1161 173.109 70.734C173.496 70.3509 173.721 69.909 173.729 69.4632C173.737 69.0174 173.693 68.4591 173.486 67.9536C173.278 67.448 173.072 66.831 172.757 66.2678C172.443 65.6488 172.182 65.0865 171.923 64.4128C171.664 63.7948 171.512 63.1788 171.416 62.5081C171.32 61.8374 171.385 61.2253 171.559 60.6153C171.733 60.0053 172.178 59.4002 172.786 58.7982C173.559 58.0319 174.381 57.601 175.304 57.5065C176.174 57.411 177.039 57.5383 177.953 58.0011C178.813 58.4071 179.67 59.0361 180.413 59.8859C180.945 60.4532 181.474 61.1876 181.949 61.921C182.423 62.6544 182.842 63.4983 183.151 64.396L180.064 67.0709L178.841 65.7663L180.509 63.5113L180.5 64.0128C180.346 63.564 180.137 63.1142 179.873 62.7191C179.609 62.324 179.292 61.8722 178.973 61.5319C178.602 61.0791 178.174 60.7368 177.69 60.5049C177.261 60.2183 176.776 60.0979 176.342 60.0899C175.908 60.0819 175.47 60.2969 175.083 60.68L174.976 60.6223Z" fill="#F7F6F0" fill-opacity="0.05"/>
<path d="M175.033 78.2394C175.417 77.9677 175.853 77.8642 176.285 77.9836C176.716 78.103 177.092 78.3329 177.356 78.728C177.673 79.1798 177.774 79.5719 177.712 80.0167C177.649 80.4615 177.426 80.7919 176.986 81.1183C176.547 81.4447 176.166 81.4935 175.733 81.4298C175.302 81.3104 174.926 81.0805 174.661 80.7412C174.344 80.2894 174.243 79.8973 174.305 79.4524C174.368 79.0076 174.592 78.6215 175.031 78.3508L175.033 78.2394Z" fill="#F7F6F0" fill-opacity="0.05"/>
<path d="M182.444 93.8732L183.81 93.2851L185.395 95.5998L184.477 95.36L197.212 90.0748L196.98 90.851L195.425 86.9202L196.232 87.3252L193.183 87.9382L192.509 86.2534L196.772 84.492L201.746 97.1822L197.483 98.9436L196.809 97.2588L199.334 95.577L199.157 96.3542L197.602 92.4234L198.246 92.8254L185.512 98.1106L186.014 97.3393L186.451 100.135L185.084 100.723L182.39 93.8165L182.444 93.8732Z" fill="#F7F6F0" fill-opacity="0.05"/>
<path d="M190.869 119.449L191.375 118.51L191.17 120.792L189.7 121.1L188.467 114.387L189.938 114.08L190.929 116.216L190.445 115.985L193.514 114.257L193.233 114.809L192 108.097L192.428 108.439L189.02 107.931L189.294 107.769L189.254 109.942L187.73 110.248L186.595 104.095L188.065 103.788L189.06 105.757L188.365 105.187L204.368 107.99L205.019 110.956L190.925 119.394L190.869 119.449ZM193.78 108.631L194.165 108.36L195.2 114.009L194.661 113.832L202.987 109.358L203.083 110.029L193.779 108.687L193.78 108.631Z" fill="#F7F6F0" fill-opacity="0.05"/>
<path d="M197.753 131.616L195.53 131.576L195.504 124.161L197.673 124.201L197.699 131.615L197.753 131.616Z" fill="#F7F6F0" fill-opacity="0.05"/>
<path d="M33.8148 177.085L35.0619 176.228L37.0044 177.73L36.2658 177.716L47.989 169.603L47.7892 170.42L46.785 168.115L48.032 167.258L51.2228 171.187L52.7863 173.21C53.9288 174.697 54.5184 176.116 54.4342 177.346C54.3501 178.576 53.7152 179.62 52.4671 180.536C51.3443 181.336 50.1069 181.665 48.8793 181.467C47.6506 181.327 46.3711 180.6 45.1639 179.287L45.4748 179.117C45.8344 179.651 46.0719 180.125 46.126 180.537C46.18 180.948 46.1714 181.417 46.1023 181.826C46.0332 182.236 45.7784 182.7 45.5852 183.166L43.5447 187L43.563 186.003L44.2012 188.126L42.9542 188.983L40.7298 186.068L43.3371 181.541C43.7182 180.903 43.973 180.438 44.1036 180.03C44.2342 179.622 44.3022 179.271 44.1241 178.916C44.0074 178.562 43.7688 178.147 43.3477 177.612L42.5065 176.482L43.1814 176.612L38.068 180.154L38.3271 179.455L39.3908 181.879L38.1437 182.736L33.8148 177.085ZM43.9306 176.039L44.2545 175.165L45.5773 176.89C46.2975 177.9 47.0868 178.501 47.9452 178.693C48.742 178.884 49.6069 178.724 50.4177 178.152C51.1659 177.638 51.5459 177.058 51.6204 176.356C51.6949 175.653 51.4011 174.886 50.8008 174.053L49.1174 171.852L49.7922 171.982L43.9922 176.04L43.9306 176.039Z" fill="#F7F6F0" fill-opacity="0.05"/>
<path d="M53.2493 198.497C52.0356 197.537 51.2549 196.467 50.7841 195.285C50.3133 194.103 50.2754 192.812 50.609 191.411C50.9415 190.068 51.7685 188.617 53.0252 187.232C54.0314 186.078 55.0323 185.216 56.0903 184.59C57.1484 183.965 58.2011 183.632 59.3122 183.477C60.3606 183.379 61.4047 183.515 62.4466 183.769C63.4875 184.081 64.4625 184.627 65.3727 185.347C66.283 186.068 67.0075 186.844 67.4837 187.732C67.9599 188.621 68.2515 189.506 68.3563 190.505C68.3995 191.503 68.3197 192.498 67.8695 193.546C67.4808 194.594 66.7845 195.637 65.9035 196.677C64.6457 198.12 63.2723 199.151 61.845 199.77C60.4176 200.389 58.9374 200.537 57.4635 200.334C55.9897 200.131 54.6465 199.52 53.3108 198.499L53.2493 198.497ZM54.9411 196.886C55.67 197.427 56.402 197.793 57.2626 197.867C58.122 198 59.0495 197.783 60.0428 197.332C61.0361 196.881 62.0985 196.021 63.1684 194.75C64.1747 193.595 64.8095 192.551 65.1344 191.619C65.4605 190.628 65.4755 189.807 65.1818 189.039C64.9496 188.272 64.4076 187.617 63.6787 187.076C63.0114 186.536 62.2178 186.169 61.3584 186.036C60.4989 185.903 59.633 186.122 58.6397 186.573C57.7068 187.084 56.6444 187.944 55.5756 189.156C54.5693 190.31 53.9345 191.354 53.6096 192.287C53.2846 193.219 53.2685 194.099 53.5007 194.866C53.7329 195.632 54.2134 196.286 54.9422 196.828L54.9411 196.886Z" fill="#F7F6F0" fill-opacity="0.05"/>
<path d="M91.5502 201.136L89.0312 200.855L89.7189 200.281L83.9421 213.137L83.7704 212.43L85.7139 213.874L85.0727 215.27L78.8404 212.692L79.4817 211.296L82.0611 211.637L81.3151 212.033L86.3848 200.807L86.8124 200.991L78.3791 207.639L76.482 207.018L75.9977 196.51L76.4253 196.694L71.3545 207.98L71.2443 207.274L73.1879 208.717L72.5466 210.113L66.6199 207.658L67.2612 206.262L69.7175 206.601L69.033 206.999L74.8099 194.143L74.9168 195.024L72.9117 193.58L73.553 192.184L78.9323 194.277L79.1682 204.897L78.8011 204.773L87.1782 197.83L92.1915 199.74L91.5502 201.136Z" fill="#F7F6F0" fill-opacity="0.05"/>
<path d="M107.816 217.388L107.091 216.612L109.229 217.531L109.018 218.994L102.015 218.161L102.226 216.699L104.633 216.391L104.256 216.795L103.581 213.322L104.004 213.74L97.0011 212.908L97.4373 212.623L95.7791 215.759L95.7855 215.408L97.8651 216.15L97.6536 217.612L91.2033 216.848L91.4148 215.386L93.6369 215.075L92.8887 215.589L100.912 201.073L104.047 201.366L107.691 217.503L107.816 217.388ZM98.1391 211.287L97.962 210.873L103.858 211.626L103.48 212.088L101.867 202.733L102.542 202.863L98.1369 211.404L98.1391 211.287Z" fill="#F7F6F0" fill-opacity="0.05"/>
<path d="M115.393 217.058C115.401 216.589 115.533 216.122 115.846 215.835C116.16 215.488 116.594 215.32 117.087 215.33C117.64 215.34 118.07 215.406 118.372 215.705C118.675 216.004 118.915 216.36 118.905 216.888C118.895 217.416 118.765 217.824 118.451 218.111C118.137 218.457 117.703 218.625 117.272 218.617C116.719 218.607 116.289 218.541 115.925 218.241C115.561 217.941 115.383 217.586 115.331 217.057L115.393 217.058Z" fill="#F7F6F0" fill-opacity="0.05"/>
<path d="M140.039 212.994L139.249 212.452L142.64 212.162L143.105 213.637L134.317 216.174L133.851 214.699L137.452 213.064L137.067 213.937L133.111 201.371L133.976 201.211L130.59 204.551L129.077 203.115L132.912 198.787L135.388 198.07L140.099 213.054L140.039 212.994Z" fill="#F7F6F0" fill-opacity="0.05"/>
<path d="M152.619 198.152L153.757 199.874C153.314 200.569 152.808 201.264 152.181 201.897C151.554 202.531 150.868 202.988 150.122 203.385C149.252 203.838 148.324 204.055 147.462 204.098C146.539 204.081 145.742 203.891 144.949 203.466C144.218 203.042 143.554 202.326 143.016 201.436C142.42 200.369 142.131 199.367 142.211 198.371C142.229 197.375 142.615 196.502 143.246 195.634C143.877 194.824 144.751 194.136 145.808 193.569C146.927 193.003 148.04 192.73 149.209 192.752C150.379 192.773 151.418 193.144 152.512 193.927C153.606 194.709 154.57 195.842 155.464 197.442C156.418 199.16 156.94 200.87 157.034 202.456C157.128 204.041 156.794 205.501 156.032 206.778C155.269 208.054 154.142 209.089 152.589 209.882C151.781 210.277 150.79 210.611 149.738 210.885L148.912 208.934C149.345 208.825 149.718 208.656 150.089 208.545C150.461 208.376 150.771 208.265 151.082 208.094C152.325 207.472 153.139 206.725 153.649 205.795C154.158 204.866 154.239 203.812 154.076 202.636C153.851 201.459 153.383 200.16 152.609 198.738C151.714 197.138 150.811 196.066 149.896 195.58C148.983 195.035 147.997 195.076 147.004 195.527C146.133 195.98 145.63 196.557 145.37 197.315C145.171 198.074 145.341 198.898 145.756 199.785C146.113 200.437 146.536 200.855 146.962 201.156C147.45 201.4 147.939 201.585 148.432 201.535C148.925 201.544 149.482 201.379 149.978 201.153C150.538 200.87 151.038 200.469 151.54 199.95C152.042 199.432 152.36 198.851 152.681 198.153L152.619 198.152Z" fill="#F7F6F0" fill-opacity="0.05"/>
<path d="M166.844 188.09L168.296 189.525C168.034 190.341 167.713 191.097 167.207 191.792C166.764 192.488 166.197 193.181 165.51 193.696C164.76 194.328 163.952 194.723 163.025 194.941C162.159 195.16 161.298 195.085 160.441 194.835C159.585 194.526 158.793 194.042 158.07 193.208C157.224 192.312 156.749 191.365 156.583 190.365C156.417 189.365 156.618 188.43 157.005 187.499C157.391 186.568 158.084 185.701 159.022 184.955C159.96 184.151 161.015 183.702 162.127 183.487C163.239 183.273 164.406 183.412 165.566 183.961C166.788 184.453 168.002 185.414 169.208 186.785C170.535 188.275 171.43 189.817 171.894 191.35C172.359 192.884 172.331 194.408 171.936 195.808C171.479 197.208 170.594 198.482 169.281 199.572C168.532 200.145 167.722 200.658 166.728 201.109L165.467 199.385C165.841 199.157 166.213 198.988 166.525 198.759C166.837 198.53 167.148 198.36 167.399 198.13C168.461 197.27 169.094 196.343 169.358 195.351C169.623 194.358 169.519 193.301 169.047 192.178C168.575 191.055 167.796 189.926 166.71 188.674C165.504 187.303 164.35 186.461 163.371 186.15C162.33 185.837 161.402 186.055 160.528 186.743C159.779 187.315 159.396 188.012 159.381 188.833C159.367 189.595 159.661 190.363 160.324 191.138C160.807 191.674 161.293 192.035 161.843 192.221C162.332 192.406 162.886 192.416 163.382 192.25C163.876 192.141 164.373 191.916 164.811 191.513C165.311 191.112 165.689 190.65 166.07 190.012C166.451 189.373 166.647 188.79 166.784 188.03L166.844 188.09Z" fill="#F7F6F0" fill-opacity="0.05"/>
<path d="M184.947 184.258C184.443 184.894 183.941 185.413 183.318 185.812C182.694 186.27 182.073 186.552 181.392 186.774C180.711 186.996 180.033 187.042 179.357 186.971C178.681 186.9 178.008 186.653 177.401 186.173C176.854 185.811 176.493 185.335 176.194 184.86C175.895 184.386 175.721 183.796 175.669 183.267C175.618 182.738 175.69 182.153 175.701 181.567C175.711 180.98 175.967 180.457 176.223 179.934L178.024 179.087C177.895 179.437 177.764 179.845 177.695 180.254C177.626 180.664 177.557 181.073 177.672 181.486C177.665 181.896 177.78 182.309 178.02 182.665C178.26 183.021 178.499 183.378 178.925 183.679C179.411 184.04 179.9 184.224 180.454 184.235C181.008 184.245 181.501 184.195 181.999 183.911C182.495 183.686 182.934 183.283 183.312 182.821C183.691 182.3 183.946 181.777 184.079 181.251C184.15 180.725 184.099 180.196 183.984 179.725C183.808 179.252 183.508 178.836 183.021 178.534C182.535 178.173 181.984 177.987 181.491 178.037C180.999 178.028 180.441 178.193 179.882 178.476C179.323 178.759 178.764 179.042 178.202 179.442C177.641 179.843 177.019 180.183 176.459 180.525C175.898 180.866 175.277 181.148 174.658 181.372C174.038 181.595 173.421 181.642 172.744 181.63C172.129 181.618 171.457 181.313 170.851 180.832C170 180.23 169.398 179.457 169.23 178.574C168.999 177.749 169.076 176.87 169.278 175.936C169.542 175.002 169.987 174.189 170.681 173.322C171.31 172.571 171.999 171.939 172.809 171.426C173.618 170.913 174.423 170.693 175.285 170.65C176.147 170.666 177.004 170.916 177.795 171.458C178.281 171.819 178.642 172.236 178.943 172.653C179.181 173.067 179.356 173.599 179.348 174.068C179.339 174.537 179.329 175.064 179.196 175.59C179.064 176.115 178.869 176.639 178.675 177.164L176.561 178.298C176.815 177.892 177.007 177.485 177.076 177.076C177.207 176.668 177.276 176.258 177.283 175.848C177.291 175.437 177.174 175.083 176.996 174.728C176.818 174.373 176.577 174.075 176.212 173.834C175.787 173.533 175.297 173.348 174.867 173.34C174.374 173.331 173.941 173.44 173.506 173.667C173.071 173.894 172.695 174.239 172.38 174.643C172.065 175.048 171.81 175.513 171.741 175.922C171.672 176.331 171.602 176.799 171.716 177.271C171.831 177.742 172.133 178.041 172.557 178.4C173.044 178.703 173.534 178.888 174.027 178.838C174.519 178.847 175.077 178.623 175.636 178.398C176.195 178.115 176.755 177.774 177.316 177.432C177.877 177.032 178.499 176.691 179.06 176.291C179.682 175.951 180.242 175.668 180.923 175.445C181.604 175.223 182.221 175.176 182.835 175.246C183.512 175.258 184.122 175.563 184.852 176.045C185.52 176.527 186.064 177.123 186.359 177.774C186.654 178.483 186.827 179.132 186.813 179.894C186.8 180.597 186.601 181.356 186.341 182.114C186.081 182.872 185.638 183.509 185.196 184.146L184.947 184.258Z" fill="#F7F6F0" fill-opacity="0.05"/>
<path d="M81.6917 112.521C82.7308 112.54 83.7121 112.726 84.581 113.078C85.4498 113.431 86.2072 113.893 86.7965 114.577C87.4404 115.262 87.8635 116.055 88.2278 117.071C88.5384 118.03 88.6809 119.211 88.6572 120.5C88.6232 122.351 88.2673 123.858 87.6431 125.081C86.9641 126.302 86.0716 127.239 84.9118 127.835C83.752 128.43 82.4333 128.743 80.902 128.715L74.3939 128.595L74.4196 127.193L76.5628 126.672L76.1697 127.226L76.4126 113.994L76.8388 114.619L74.6616 114.018L74.6873 112.616L79.502 112.593L81.6349 112.632L81.6917 112.521ZM81.1052 126.587C81.6521 126.597 82.201 126.495 82.6963 126.336C83.1916 126.177 83.69 125.849 84.1347 125.465C84.5805 125.024 84.9199 124.414 85.2078 123.634C85.4956 122.854 85.6246 121.791 85.6472 120.557C85.6699 119.324 85.579 118.313 85.32 117.523C85.1156 116.734 84.7441 116.11 84.3685 115.71C83.9929 115.311 83.5069 114.966 83.0177 114.788C82.5286 114.611 82.0385 114.49 81.4916 114.48L78.7024 114.429L79.1482 113.988L78.9104 126.939L78.4811 126.483L81.0515 126.53L81.1052 126.587Z" fill="#F7F6F0" fill-opacity="0.05"/>
<path d="M100.504 124.868L102.144 124.898L102.068 129.047L90.4741 128.834L90.4998 127.433L92.643 126.911L92.2499 127.465L92.4928 114.233L92.8654 114.801L90.7417 114.257L90.7675 112.855L95.2541 112.826L102.09 112.951L102.017 116.932L100.377 116.902L99.9822 114.539L100.522 114.941L94.8342 114.837L95.2799 114.396L95.1739 120.171L94.7446 119.715L100.268 119.816L100.232 121.778L94.7086 121.677L95.1554 121.18L95.0421 127.348L94.6129 126.891L100.574 127.001L100.019 127.439L100.504 124.868Z" fill="#F7F6F0" fill-opacity="0.05"/>
<path d="M110.538 129.427C109.335 129.405 108.246 129.105 107.22 128.413C106.247 127.778 105.444 126.81 104.864 125.621C104.284 124.433 104.039 122.858 104.072 121.064C104.105 119.27 104.405 117.817 105.031 116.539C105.655 115.316 106.494 114.322 107.599 113.725C108.705 113.073 109.969 112.759 111.391 112.785C112.157 112.8 112.975 112.927 113.792 113.11C114.609 113.293 115.478 113.646 116.346 114.054L116.109 118.032L114.468 118.002L114.026 115.246L114.509 115.759C113.967 115.525 113.423 115.347 112.933 115.225C112.442 115.104 111.951 115.039 111.514 115.031C110.584 115.014 109.814 115.224 109.204 115.662C108.54 116.098 108.035 116.762 107.691 117.653C107.346 118.544 107.164 119.55 107.141 120.784C107.115 122.185 107.258 123.366 107.624 124.27C107.99 125.174 108.469 125.912 109.116 126.428C109.764 126.889 110.526 127.127 111.346 127.142C111.948 127.153 112.606 127.053 113.322 126.786C113.984 126.518 114.702 126.138 115.368 125.59L116.378 127.235C115.433 128.003 114.493 128.546 113.502 128.921C112.51 129.295 111.577 129.446 110.593 129.428L110.538 129.427Z" fill="#F7F6F0" fill-opacity="0.05"/>
<path d="M117.79 127.934C117.799 127.485 117.97 127.096 118.304 126.765C118.638 126.491 119.023 126.33 119.406 126.337C119.899 126.346 120.278 126.521 120.547 126.807C120.815 127.092 120.972 127.487 120.962 127.992C120.953 128.497 120.783 128.83 120.449 129.16C120.114 129.491 119.784 129.597 119.347 129.589C118.854 129.58 118.475 129.404 118.206 129.119C117.938 128.834 117.781 128.438 117.79 127.934Z" fill="#F7F6F0" fill-opacity="0.05"/>
<path d="M132.993 128.269L132.46 127.53L135.401 128.201L135.375 129.659L127.226 129.509L127.253 128.051L130.763 127.555L130.203 128.274L130.432 115.771L131.198 115.785L127.383 117.958L126.54 116.204L130.969 113.369L133.266 113.411L132.992 128.325L132.993 128.269Z" fill="#F7F6F0" fill-opacity="0.05"/>
<path d="M145.394 120.196L145.469 122.104C144.804 122.541 144.087 122.864 143.317 123.074C142.546 123.341 141.779 123.439 141.013 123.425C140.138 123.409 139.321 123.225 138.617 122.82C137.913 122.414 137.376 121.9 136.951 121.163C136.582 120.427 136.379 119.582 136.343 118.572C136.363 117.45 136.6 116.445 137.107 115.669C137.614 114.893 138.281 114.289 139.165 113.856C140.048 113.424 140.981 113.273 142.074 113.293C143.168 113.313 144.203 113.556 145.069 114.077C145.935 114.597 146.631 115.395 147.104 116.47C147.577 117.544 147.824 118.951 147.792 120.689C147.757 122.595 147.399 124.215 146.772 125.606C146.145 126.996 145.195 128.044 144.033 128.808C142.87 129.572 141.495 129.939 139.909 129.91C139.089 129.895 138.216 129.767 137.291 129.47L137.547 127.455C137.929 127.518 138.311 127.581 138.693 127.644C139.074 127.708 139.348 127.713 139.676 127.719C140.879 127.741 141.923 127.479 142.699 126.933C143.475 126.386 144.038 125.555 144.44 124.497C144.842 123.439 145.031 122.096 145.059 120.582C145.091 118.844 144.84 117.606 144.363 116.756C143.887 115.906 143.128 115.499 142.089 115.48C141.214 115.464 140.553 115.733 140.051 116.228C139.55 116.724 139.262 117.504 139.244 118.457C139.232 119.129 139.331 119.692 139.597 120.09C139.808 120.542 140.131 120.829 140.564 121.061C140.997 121.293 141.433 121.413 141.925 121.422C142.472 121.432 143.076 121.331 143.681 121.118C144.287 120.905 144.84 120.578 145.395 120.14L145.394 120.196Z" fill="#F7F6F0" fill-opacity="0.05"/>
<path d="M85.3286 137.994L84.3381 138.312L84.5062 138.091L84.3899 144.426L84.23 144.199L85.2092 144.497L85.1969 145.17L82.1343 145.114L82.1466 144.441L83.1362 144.179L82.968 144.4L83.0843 138.065L83.2443 138.292L82.2103 137.993L82.2227 137.32L85.2853 137.376L85.274 137.993L85.3286 137.994Z" fill="#F7F6F0" fill-opacity="0.05"/>
<path d="M89.6056 137.343C90.0978 137.352 90.589 137.417 91.0234 137.594C91.4578 137.77 91.7819 138 92.1038 138.343C92.4258 138.685 92.6373 139.081 92.7932 139.533C92.949 139.985 93.0481 140.547 93.0357 141.22C93.0193 142.117 92.8418 142.843 92.557 143.455C92.2723 144.066 91.7718 144.506 91.2198 144.776C90.6667 145.102 90.0084 145.203 89.2974 145.19L86.1254 145.131L86.1378 144.458L87.182 144.197L86.9581 144.474L87.0765 138.026L87.2901 138.31L86.2561 138.011L86.2685 137.338L88.6202 137.381L89.6603 137.344L89.6056 137.343ZM89.3149 144.236C89.3149 144.236 89.8618 144.246 90.0826 144.138C90.3581 144.031 90.5789 143.923 90.8018 143.703C91.0247 143.483 91.1939 143.205 91.3105 142.815C91.4271 142.424 91.5457 141.922 91.5571 141.305C91.5684 140.688 91.5219 140.239 91.4197 139.844C91.3176 139.45 91.1587 139.167 90.944 138.938C90.7294 138.71 90.5127 138.594 90.296 138.478C90.0793 138.361 89.8058 138.356 89.5324 138.351L88.1651 138.326L88.388 138.106L88.2717 144.442L88.0571 144.213L89.3149 144.236Z" fill="#F7F6F0" fill-opacity="0.05"/>
<path d="M93.4661 144.593C93.4661 144.593 93.528 144.202 93.6951 144.036C93.8623 143.871 94.0274 143.818 94.2461 143.822C94.4649 143.826 94.6826 143.886 94.7889 144.056C94.8952 144.227 95.0015 144.397 94.9974 144.621C94.9932 144.845 94.9344 145.069 94.7683 145.178C94.6012 145.343 94.4361 145.396 94.2173 145.392C93.9985 145.388 93.7808 145.328 93.6745 145.158C93.5125 145.043 93.4619 144.817 93.4661 144.593Z" fill="#F7F6F0" fill-opacity="0.05"/>
<path d="M103.263 138.547L100.238 145.39L98.7611 145.363L101.898 138.41L102.112 138.638L98.7216 138.576L98.9992 138.357L98.701 139.698L97.8807 139.682L97.9219 137.44L103.281 137.538L103.264 138.491L103.263 138.547Z" fill="#F7F6F0" fill-opacity="0.05"/>
<path d="M106.303 145.67C105.975 145.664 105.647 145.658 105.321 145.54C104.995 145.422 104.723 145.304 104.453 145.131C104.183 144.958 104.023 144.731 103.864 144.447C103.705 144.164 103.655 143.883 103.661 143.546C103.667 143.266 103.672 142.986 103.84 142.764C103.953 142.542 104.122 142.321 104.289 142.156C104.456 141.991 104.678 141.826 104.953 141.719C105.174 141.611 105.45 141.504 105.669 141.452L106.428 141.859C106.428 141.859 106.098 141.965 105.932 142.074C105.766 142.127 105.6 142.236 105.433 142.401C105.266 142.566 105.155 142.676 105.097 142.844C104.984 143.01 104.925 143.233 104.921 143.457C104.916 143.738 104.967 143.963 105.127 144.19C105.232 144.416 105.394 144.532 105.611 144.648C105.827 144.764 106.045 144.824 106.373 144.83C106.701 144.836 106.92 144.84 107.142 144.676C107.363 144.568 107.53 144.403 107.697 144.237C107.811 144.015 107.924 143.793 107.928 143.569C107.933 143.288 107.883 143.063 107.722 142.892C107.561 142.721 107.4 142.549 107.129 142.432C106.912 142.316 106.64 142.199 106.369 142.082C106.098 141.965 105.772 141.846 105.5 141.729C105.229 141.612 104.957 141.495 104.742 141.323C104.526 141.151 104.31 140.978 104.151 140.695C103.992 140.468 103.943 140.13 103.949 139.794C103.958 139.289 104.075 138.899 104.354 138.624C104.633 138.292 104.966 138.074 105.351 137.913C105.737 137.752 106.176 137.704 106.668 137.713C107.16 137.722 107.542 137.785 107.922 137.96C108.302 138.135 108.626 138.366 108.839 138.65C109.053 138.934 109.155 139.329 109.147 139.777C109.142 140.058 109.137 140.282 108.969 140.503C108.856 140.725 108.743 140.891 108.521 141.056C108.354 141.221 108.134 141.329 107.913 141.437C107.692 141.545 107.472 141.597 107.198 141.648L106.276 141.183C106.276 141.183 106.66 141.134 106.881 141.026C107.102 140.917 107.212 140.863 107.378 140.754C107.544 140.645 107.656 140.535 107.713 140.368C107.771 140.201 107.829 140.033 107.833 139.809C107.837 139.585 107.787 139.36 107.68 139.189C107.574 139.019 107.412 138.904 107.195 138.788C106.979 138.672 106.76 138.668 106.541 138.664C106.322 138.66 106.104 138.656 105.883 138.764C105.663 138.816 105.496 138.981 105.383 139.147C105.271 139.313 105.213 139.481 105.208 139.761C105.203 140.041 105.255 140.21 105.414 140.438C105.575 140.609 105.736 140.78 106.008 140.897C106.279 141.015 106.496 141.131 106.822 141.249C107.093 141.366 107.365 141.483 107.691 141.601C107.962 141.718 108.234 141.836 108.449 142.008C108.665 142.18 108.88 142.408 109.04 142.636C109.199 142.863 109.248 143.2 109.241 143.593C109.234 143.985 109.118 144.32 108.949 144.597C108.78 144.874 108.556 145.151 108.279 145.314C108.003 145.477 107.671 145.639 107.341 145.745C107.011 145.851 106.627 145.9 106.299 145.894L106.303 145.67Z" fill="#F7F6F0" fill-opacity="0.05"/>
<path d="M112.265 145.779C111.827 145.771 111.445 145.764 111.01 145.588C110.575 145.468 110.195 145.293 109.87 145.119L110.216 144.171C110.541 144.346 110.867 144.464 111.193 144.582C111.519 144.7 111.846 144.762 112.229 144.769C112.612 144.776 112.83 144.78 113.052 144.616C113.273 144.508 113.494 144.4 113.662 144.179C113.83 143.957 113.889 143.734 113.895 143.398C113.9 143.117 113.85 142.892 113.743 142.722C113.637 142.552 113.476 142.381 113.205 142.263C112.933 142.146 112.661 142.085 112.278 142.078L111.348 142.061L111.367 141.052L112.297 141.069C112.789 141.078 113.174 140.973 113.451 140.754C113.729 140.534 113.843 140.256 113.851 139.864C113.859 139.415 113.755 139.133 113.484 138.959C113.214 138.786 112.888 138.668 112.45 138.66C112.232 138.656 112.013 138.652 111.738 138.703C111.464 138.754 111.299 138.807 111.024 138.858L111.191 138.693L111.059 139.924L110.239 139.909L110.164 138.057C110.604 137.897 111.043 137.849 111.482 137.745C111.921 137.697 112.305 137.648 112.742 137.656C113.234 137.665 113.671 137.729 113.996 137.903C114.321 138.077 114.646 138.252 114.86 138.536C115.073 138.82 115.176 139.215 115.167 139.663C115.157 140.224 114.985 140.67 114.65 141C114.316 141.33 113.821 141.489 113.217 141.591L113.219 141.478C113.875 141.49 114.418 141.725 114.74 142.067C115.062 142.41 115.218 142.861 115.207 143.478C115.199 143.87 115.138 144.262 114.968 144.539C114.799 144.816 114.575 145.093 114.299 145.256C114.022 145.419 113.691 145.581 113.361 145.687C113.031 145.793 112.647 145.843 112.209 145.835L112.265 145.779Z" fill="#F7F6F0" fill-opacity="0.05"/>
<path d="M120.611 141.109L120.594 142.063C120.594 142.063 119.985 142.444 119.6 142.549C119.215 142.654 118.886 142.704 118.503 142.697C118.066 142.689 117.685 142.57 117.305 142.395C116.98 142.221 116.712 141.935 116.499 141.595C116.287 141.254 116.239 140.861 116.194 140.355C116.204 139.795 116.322 139.348 116.548 138.96C116.774 138.571 117.107 138.297 117.549 138.081C117.99 137.864 118.43 137.76 118.977 137.77C119.524 137.78 120.014 137.902 120.447 138.134C120.881 138.366 121.201 138.765 121.41 139.329C121.619 139.838 121.77 140.57 121.755 141.411C121.738 142.308 121.559 143.146 121.273 143.814C120.932 144.48 120.485 145.033 119.931 145.359C119.378 145.686 118.718 145.898 117.952 145.884C117.515 145.876 117.133 145.813 116.643 145.692L116.771 144.684C116.771 144.684 117.153 144.747 117.317 144.751C117.481 144.754 117.645 144.757 117.809 144.76C118.41 144.771 118.905 144.667 119.293 144.394C119.681 144.121 119.961 143.733 120.135 143.232C120.308 142.73 120.43 142.059 120.443 141.331C120.459 140.49 120.361 139.871 120.094 139.473C119.883 139.077 119.504 138.846 119.012 138.837C118.574 138.829 118.244 138.935 118.02 139.211C117.796 139.487 117.626 139.821 117.618 140.269C117.612 140.606 117.661 140.887 117.767 141.057C117.873 141.283 118.034 141.455 118.251 141.515C118.468 141.631 118.686 141.691 118.905 141.695C119.178 141.7 119.452 141.705 119.728 141.542C120.004 141.435 120.28 141.272 120.558 141.052L120.611 141.109Z" fill="#F7F6F0" fill-opacity="0.05"/>
<path d="M122.657 145.858L122.679 144.681C123.513 143.967 124.235 143.363 124.792 142.813C125.349 142.262 125.741 141.821 126.022 141.377C126.304 140.933 126.421 140.543 126.428 140.151C126.435 139.758 126.332 139.42 126.061 139.246C125.792 139.017 125.465 138.955 125.082 138.948C124.863 138.944 124.699 138.941 124.479 138.993C124.261 138.989 124.04 139.097 123.82 139.149L123.988 138.928L123.801 140.214L122.98 140.199L122.906 138.291C123.346 138.131 123.785 138.083 124.225 137.979C124.663 137.931 125.047 137.882 125.375 137.888C125.867 137.897 126.304 137.961 126.738 138.137C127.173 138.313 127.443 138.487 127.656 138.827C127.869 139.111 127.971 139.506 127.962 140.01C127.952 140.571 127.833 141.074 127.496 141.572C127.213 142.072 126.82 142.626 126.264 143.12C125.708 143.615 125.094 144.276 124.316 144.935L124.319 144.767L128.038 144.835L128.018 145.9L122.768 145.804L122.657 145.858Z" fill="#F7F6F0" fill-opacity="0.05"/>
<path d="M132.267 143.903L132.59 144.19L128.598 144.116L128.451 143.16L132.102 138.011L133.686 138.153L133.589 143.423L133.266 143.136L134.797 143.165L134.778 144.23L133.246 144.202L133.58 143.927L133.542 146.002L132.174 145.977L132.212 143.902L132.267 143.903ZM132.664 143.125L132.331 143.4L132.415 138.802L132.853 138.81L129.592 143.574L129.328 143.064L132.664 143.125Z" fill="#F7F6F0" fill-opacity="0.05"/>
</g>
</g>
</g>
<defs>
<filter id="filter0_f_708_790" x="-0.9375" y="15.0631" width="222.934" height="223.001" filterUnits="userSpaceOnUse" color-interpolation-filters="sRGB">
<feFlood flood-opacity="0" result="BackgroundImageFix"/>
<feBlend mode="normal" in="SourceGraphic" in2="BackgroundImageFix" result="shape"/>
<feGaussianBlur stdDeviation="0.5" result="effect1_foregroundBlur_708_790"/>
</filter>
<filter id="filter1_if_708_790" x="-0.8" y="13.2" width="223.734" height="224.801" filterUnits="userSpaceOnUse" color-interpolation-filters="sRGB">
<feFlood flood-opacity="0" result="BackgroundImageFix"/>
<feBlend mode="normal" in="SourceGraphic" in2="BackgroundImageFix" result="shape"/>
<feColorMatrix in="SourceAlpha" type="matrix" values="0 0 0 0 0 0 0 0 0 0 0 0 0 0 0 0 0 0 127 0" result="hardAlpha"/>
<feOffset dx="2" dy="4"/>
<feGaussianBlur stdDeviation="1.5"/>
<feComposite in2="hardAlpha" operator="arithmetic" k2="-1" k3="1"/>
<feColorMatrix type="matrix" values="0 0 0 0 0 0 0 0 0 0 0 0 0 0 0 0 0 0 0.25 0"/>
<feBlend mode="normal" in2="shape" result="effect1_innerShadow_708_790"/>
<feGaussianBlur stdDeviation="0.4" result="effect2_foregroundBlur_708_790"/>
</filter>
<clipPath id="clip0_708_790">
<rect width="222.995" height="251.064" fill="white"/>
</clipPath>
<clipPath id="clip1_708_790">
<rect width="194.235" height="190.208" fill="white" transform="translate(15.4922 28) rotate(1.05187)"/>
</clipPath>
<clipPath id="clip2_708_790">
<rect width="194.235" height="190.208" fill="white" transform="translate(14.2891 26.2581) rotate(1.05187)"/>
</clipPath>
</defs>
</svg>
