<svg width="198" height="26" viewBox="0 0 198 26" fill="none" xmlns="http://www.w3.org/2000/svg">
<path d="M0.0859375 25V23.679C1.03432 23.6339 1.73432 23.5435 2.18594 23.4081C2.63755 23.2726 2.9311 23.0016 3.06658 22.5952C3.22465 22.1887 3.30368 21.579 3.30368 20.7661V5.25322C3.30368 4.44032 3.22465 3.84193 3.06658 3.45806C2.90852 3.05161 2.60368 2.76935 2.15207 2.61129C1.70045 2.45323 1.01174 2.3629 0.0859375 2.34032V1.01935C0.785937 1.04193 1.66658 1.06451 2.72787 1.0871C3.81174 1.0871 5.15529 1.0871 6.75852 1.0871C7.39078 1.0871 8.04562 1.0871 8.72303 1.0871C9.42303 1.06451 10.0666 1.05322 10.6537 1.05322C11.2634 1.03064 11.7714 1.01935 12.1779 1.01935C17.1005 1.01935 20.8263 1.99032 23.3553 3.93226C25.8843 5.87419 27.1488 8.71935 27.1488 12.4677C27.1488 15.0645 26.5505 17.3 25.3537 19.1742C24.1569 21.0484 22.4408 22.4935 20.2053 23.5097C17.9698 24.5032 15.2827 25 12.144 25C11.5343 25 10.8117 24.9887 9.97626 24.9661C9.14078 24.921 8.0682 24.8984 6.75852 24.8984C5.24561 24.8984 3.87949 24.9097 2.66013 24.9323C1.46336 24.9548 0.605292 24.9774 0.0859375 25ZM12.7198 23.7129C15.2488 23.7129 17.1005 22.8548 18.2746 21.1387C19.4488 19.4 20.0359 16.6677 20.0359 12.9419C20.0359 9.23871 19.4488 6.54032 18.2746 4.84677C17.1005 3.13064 15.2037 2.27258 12.5843 2.27258H10.1795V20.8339C10.1795 21.6016 10.2472 22.2 10.3827 22.629C10.5182 23.0355 10.7666 23.3177 11.1279 23.4758C11.5117 23.6339 12.0424 23.7129 12.7198 23.7129Z" fill="#DA4143"/>
<path d="M26.8855 25V23.679C27.6533 23.521 28.3194 23.25 28.8839 22.8661C29.4485 22.4823 29.9791 21.929 30.4759 21.2064C30.9726 20.4839 31.492 19.5242 32.0339 18.3274L40.0614 0.782257H41.2807L51.2726 20.529C51.8372 21.6355 52.413 22.4258 53.0001 22.9C53.5872 23.3516 54.321 23.6113 55.2017 23.679V25C54.3888 24.9548 53.3614 24.9323 52.1194 24.9323C50.9001 24.9097 49.4888 24.8984 47.8855 24.8984C46.1468 24.8984 44.6565 24.9097 43.4146 24.9323C42.1952 24.9323 41.2694 24.9548 40.6372 25V23.679C41.721 23.6565 42.5339 23.5323 43.0759 23.3064C43.6404 23.0581 43.9565 22.6968 44.0243 22.2226C44.1146 21.7484 43.9565 21.1387 43.5501 20.3935L37.2839 8.03064L38.3001 7.75968L34.1339 16.871C33.4791 18.3161 33.1291 19.5355 33.0839 20.529C33.0614 21.5226 33.3436 22.2903 33.9307 22.8323C34.5404 23.3516 35.4662 23.6339 36.7081 23.679V25C35.7597 24.9774 34.9468 24.9661 34.2694 24.9661C33.6146 24.9435 33.0275 24.9323 32.5081 24.9323C31.9888 24.9097 31.4694 24.8984 30.9501 24.8984C30.1372 24.8984 29.4033 24.9097 28.7484 24.9323C28.0936 24.9323 27.4726 24.9548 26.8855 25ZM32.9484 17.9548L33.5243 16.6339H43.7194L44.3968 17.9548H32.9484Z" fill="#DA4143"/>
<path d="M78.2321 25.2371L69.4595 3.7629H69.053V19.0387C69.053 20.2129 69.1321 21.1274 69.2901 21.7823C69.4482 22.4145 69.7982 22.8661 70.3401 23.1371C70.9047 23.4081 71.774 23.5887 72.9482 23.679V25C72.474 24.9548 71.8192 24.9323 70.9837 24.9323C70.1482 24.9097 69.3014 24.8984 68.4434 24.8984C67.6531 24.8984 66.8966 24.9097 66.174 24.9323C65.474 24.9323 64.9095 24.9548 64.4805 25V23.679C65.4063 23.5887 66.095 23.4081 66.5466 23.1371C66.9982 22.8661 67.303 22.4258 67.4611 21.8161C67.6192 21.2065 67.6982 20.3823 67.6982 19.3435V5.25322C67.6982 4.41774 67.6192 3.80806 67.4611 3.42419C67.3256 3.04032 67.0321 2.76935 66.5805 2.61129C66.1289 2.45323 65.4289 2.3629 64.4805 2.34032V1.01935C64.9772 1.04193 65.6321 1.06451 66.445 1.0871C67.2579 1.10968 68.1385 1.12097 69.0869 1.12097C70.3514 1.12097 71.5482 1.10968 72.6772 1.0871C73.8063 1.06451 74.8337 1.04193 75.7595 1.01935L82.0595 16.4306L80.874 17.4468L86.8692 1.01935C87.8401 1.06451 88.7321 1.09839 89.545 1.12097C90.3579 1.12097 91.2047 1.12097 92.0853 1.12097C93.2595 1.12097 94.3772 1.10968 95.4385 1.0871C96.4998 1.06451 97.3466 1.04193 97.9789 1.01935V2.34032C97.0305 2.3629 96.3305 2.45323 95.8789 2.61129C95.4272 2.74677 95.1224 3.01774 94.9643 3.42419C94.8289 3.80806 94.7611 4.41774 94.7611 5.25322V20.7661C94.7611 21.579 94.8401 22.1887 94.9982 22.5952C95.1563 22.979 95.4611 23.25 95.9127 23.4081C96.3643 23.5435 97.0531 23.6339 97.9789 23.679V25C97.2563 24.9548 96.3079 24.9323 95.1337 24.9323C93.9821 24.9097 92.7289 24.8984 91.374 24.8984C89.9063 24.8984 88.574 24.9097 87.3772 24.9323C86.203 24.9323 85.2772 24.9548 84.5998 25V23.679C85.5256 23.6339 86.2256 23.5435 86.6998 23.4081C87.174 23.2726 87.4901 23.0016 87.6482 22.5952C87.8063 22.1887 87.8853 21.579 87.8853 20.7661V3.1871H87.4789L79.4853 25.2371H78.2321Z" fill="#DA4143"/>
<path d="M98.7449 25V23.679C99.5127 23.521 100.179 23.25 100.743 22.8661C101.308 22.4823 101.838 21.929 102.335 21.2064C102.832 20.4839 103.351 19.5242 103.893 18.3274L111.921 0.782257H113.14L123.132 20.529C123.697 21.6355 124.272 22.4258 124.859 22.9C125.447 23.3516 126.18 23.6113 127.061 23.679V25C126.248 24.9548 125.221 24.9323 123.979 24.9323C122.759 24.9097 121.348 24.8984 119.745 24.8984C118.006 24.8984 116.516 24.9097 115.274 24.9323C114.055 24.9323 113.129 24.9548 112.497 25V23.679C113.58 23.6565 114.393 23.5323 114.935 23.3064C115.5 23.0581 115.816 22.6968 115.884 22.2226C115.974 21.7484 115.816 21.1387 115.409 20.3935L109.143 8.03064L110.159 7.75968L105.993 16.871C105.338 18.3161 104.988 19.5355 104.943 20.529C104.921 21.5226 105.203 22.2903 105.79 22.8323C106.4 23.3516 107.326 23.6339 108.568 23.679V25C107.619 24.9774 106.806 24.9661 106.129 24.9661C105.474 24.9435 104.887 24.9323 104.368 24.9323C103.848 24.9097 103.329 24.8984 102.809 24.8984C101.997 24.8984 101.263 24.9097 100.608 24.9323C99.953 24.9323 99.332 24.9548 98.7449 25ZM104.808 17.9548L105.384 16.6339H115.579L116.256 17.9548H104.808Z" fill="#DA4143"/>
<path d="M127.932 25V23.679C128.857 23.6339 129.546 23.5435 129.998 23.4081C130.472 23.25 130.777 22.979 130.912 22.5952C131.07 22.1887 131.149 21.579 131.149 20.7661V5.25322C131.149 4.44032 131.07 3.84193 130.912 3.45806C130.754 3.05161 130.449 2.76935 129.998 2.61129C129.546 2.45323 128.857 2.3629 127.932 2.34032V1.01935C128.27 1.04193 128.948 1.06451 129.964 1.0871C130.98 1.0871 132.222 1.0871 133.69 1.0871C134.616 1.0871 135.406 1.0871 136.061 1.0871C136.738 1.0871 137.325 1.0871 137.822 1.0871C138.319 1.06451 138.759 1.05322 139.143 1.05322C139.527 1.03064 139.899 1.01935 140.261 1.01935C143.806 1.01935 146.414 1.49355 148.085 2.44194C149.778 3.39032 150.625 4.88064 150.625 6.9129C150.625 8.3129 150.207 9.49839 149.372 10.4694C148.536 11.4177 147.295 12.1403 145.646 12.6371C143.998 13.1339 141.954 13.3823 139.516 13.3823H134.977V12.6371H139.685C141.175 12.6371 142.293 12.1855 143.038 11.2823C143.806 10.379 144.19 9.03548 144.19 7.25161C144.19 5.58064 143.862 4.35 143.207 3.55968C142.553 2.74677 141.548 2.34032 140.193 2.34032H138.025V20.7661C138.025 21.5564 138.093 22.1548 138.228 22.5613C138.386 22.9677 138.691 23.25 139.143 23.4081C139.617 23.5435 140.317 23.6339 141.243 23.679V25C139.978 24.9323 137.788 24.8984 134.672 24.8984C131.353 24.8984 129.106 24.9323 127.932 25ZM149.169 25.4742C147.362 25.4742 146.041 25.1129 145.206 24.3903C144.37 23.6452 143.783 22.3355 143.445 20.4613L142.903 17.2435C142.767 16.3855 142.564 15.7194 142.293 15.2452C142.045 14.771 141.695 14.4323 141.243 14.229C140.814 14.0258 140.227 13.9242 139.482 13.9242H135.248V13.0435H139.245C141.638 13.0435 143.58 13.2355 145.07 13.6194C146.583 13.9806 147.746 14.5903 148.559 15.4484C149.372 16.3065 149.948 17.4694 150.286 18.9371L150.659 20.529C150.885 21.3871 151.133 22.0081 151.404 22.3919C151.698 22.7532 152.093 22.9339 152.59 22.9339C152.793 22.9339 152.974 22.9 153.132 22.8323C153.312 22.7645 153.482 22.6742 153.64 22.5613L154.182 23.6452C153.549 24.2774 152.827 24.7403 152.014 25.0339C151.224 25.3274 150.275 25.4742 149.169 25.4742Z" fill="#DA4143"/>
<path d="M154.797 25V23.679C155.745 23.6339 156.445 23.5435 156.897 23.4081C157.348 23.2726 157.642 23.0016 157.778 22.5952C157.936 22.1887 158.015 21.579 158.015 20.7661V5.25322C158.015 4.41774 157.936 3.80806 157.778 3.42419C157.642 3.01774 157.337 2.74677 156.863 2.61129C156.411 2.45323 155.723 2.3629 154.797 2.34032V1.01935C155.452 1.04193 156.366 1.06451 157.54 1.0871C158.715 1.10968 160.069 1.12097 161.605 1.12097C163.028 1.12097 164.292 1.10968 165.398 1.0871C166.528 1.06451 167.419 1.04193 168.074 1.01935V2.34032C167.148 2.3629 166.448 2.45323 165.974 2.61129C165.523 2.74677 165.229 3.01774 165.094 3.42419C164.958 3.80806 164.89 4.41774 164.89 5.25322V20.7661C164.89 21.579 164.958 22.1887 165.094 22.5952C165.252 22.979 165.557 23.25 166.008 23.4081C166.46 23.5435 167.148 23.6339 168.074 23.679V25C167.419 24.9548 166.528 24.9323 165.398 24.9323C164.292 24.9097 163.028 24.8984 161.605 24.8984C160.069 24.8984 158.715 24.9097 157.54 24.9323C156.366 24.9323 155.452 24.9548 154.797 25Z" fill="#DA4143"/>
<path d="M168.841 25V23.679C169.608 23.521 170.274 23.25 170.839 22.8661C171.404 22.4823 171.934 21.929 172.431 21.2064C172.928 20.4839 173.447 19.5242 173.989 18.3274L182.016 0.782257H183.236L193.228 20.529C193.792 21.6355 194.368 22.4258 194.955 22.9C195.542 23.3516 196.276 23.6113 197.157 23.679V25C196.344 24.9548 195.316 24.9323 194.074 24.9323C192.855 24.9097 191.444 24.8984 189.841 24.8984C188.102 24.8984 186.612 24.9097 185.37 24.9323C184.15 24.9323 183.224 24.9548 182.592 25V23.679C183.676 23.6565 184.489 23.5323 185.031 23.3064C185.595 23.0581 185.912 22.6968 185.979 22.2226C186.07 21.7484 185.912 21.1387 185.505 20.3935L179.239 8.03064L180.255 7.75968L176.089 16.871C175.434 18.3161 175.084 19.5355 175.039 20.529C175.016 21.5226 175.299 22.2903 175.886 22.8323C176.495 23.3516 177.421 23.6339 178.663 23.679V25C177.715 24.9774 176.902 24.9661 176.225 24.9661C175.57 24.9435 174.983 24.9323 174.463 24.9323C173.944 24.9097 173.424 24.8984 172.905 24.8984C172.092 24.8984 171.358 24.9097 170.704 24.9323C170.049 24.9323 169.428 24.9548 168.841 25ZM174.904 17.9548L175.479 16.6339H185.674L186.352 17.9548H174.904Z" fill="#DA4143"/>
</svg>
